<?xml version="1.0" standalone="no"?><!DOCTYPE svg PUBLIC "-//W3C//DTD SVG 1.1//EN" "http://www.w3.org/Graphics/SVG/1.1/DTD/svg11.dtd"><svg t="1776218168689" class="icon" viewBox="0 0 1024 1024" version="1.1" xmlns="http://www.w3.org/2000/svg" p-id="5388" xmlns:xlink="http://www.w3.org/1999/xlink" width="200" height="200"><path d="M736 960h-448c-117.376 0-179.2-60.992-179.2-179.2v-134.848h89.6V780.8c0 68.416 21.632 89.6 89.6 89.6h448c67.968 0 89.6-21.184 89.6-89.6v-134.848h89.6V780.8c0 118.208-61.824 179.2-179.2 179.2z m-197.312-196.416a34.112 34.112 0 0 1-53.44 0L259.776 473.216a30.912 30.912 0 0 1 24.768-50.816H377.6c17.152 0 44.8-26.88 44.8-44.8V108.8a44.8 44.8 0 0 1 44.8-44.8h89.6a44.8 44.8 0 0 1 44.8 44.8v268.8c0 17.92 26.304 44.8 44.8 44.8h93.056c27.584 0 41.344 29.44 24.768 50.816l-225.536 290.368z" fill="#037d0b" p-id="5389"></path></svg>