<?xml version="1.0" encoding="UTF-8"?>
<svg version="1.1" xmlns="http://www.w3.org/2000/svg" width="157" height="68">
<path d="M0 0 C51.81 0 103.62 0 157 0 C157 22.44 157 44.88 157 68 C105.19 68 53.38 68 0 68 C0 45.56 0 23.12 0 0 Z " fill="#B3AB8A" transform="translate(0,0)"/>
<path d="M0 0 C31.11791775 -0.08032734 31.11791775 -0.08032734 46.45411015 -0.10050774 C54.75873657 -0.11160394 63.06332296 -0.12570598 71.36791992 -0.15087891 C77.94148527 -0.17079525 84.51502044 -0.18371226 91.08861512 -0.18817699 C94.57022122 -0.19078736 98.051741 -0.1969347 101.53331947 -0.21146011 C105.41716776 -0.22753283 109.30093112 -0.22798081 113.18481445 -0.22705078 C114.92189919 -0.23783661 114.92189919 -0.23783661 116.69407654 -0.24884033 C117.74996979 -0.246091 118.80586304 -0.24334167 119.89375305 -0.24050903 C120.81278066 -0.24235262 121.73180826 -0.24419621 122.67868519 -0.24609566 C125 0 125 0 128 2 C128 2.66 128 3.32 128 4 C126.35 3.67 124.7 3.34 123 3 C122.67 3.66 122.34 4.32 122 5 C113.32267052 6.55021954 104.410964 6.11119861 95.625 6.0625 C94.05338685 6.05747421 92.48177213 6.05291322 90.91015625 6.04882812 C88.04636632 6.0407068 85.18261392 6.03005847 82.31884766 6.01586914 C80.21258254 6.00579799 78.10628919 6 76 6 C75.01 5.34 74.02 4.68 73 4 C72.13375 4.7425 72.13375 4.7425 71.25 5.5 C68.10943508 7.59370995 65.74247736 7.13132253 62.12890625 6.4921875 C54.91243475 5.39557626 47.40999579 6.04287414 40.13867188 6.21484375 C38.92630859 6.22902344 37.71394531 6.24320313 36.46484375 6.2578125 C35.367771 6.2798877 34.27069824 6.30196289 33.14038086 6.32470703 C29.51826377 5.95018975 27.19662416 4.69133697 24 3 C21.80066378 2.51708559 21.80066378 2.51708559 19.6953125 2.48828125 C18.57382812 2.43510742 18.57382812 2.43510742 17.4296875 2.38085938 C16.66914063 2.35830078 15.90859375 2.33574219 15.125 2.3125 C14.34125 2.27833984 13.5575 2.24417969 12.75 2.20898438 C10.83381252 2.12719588 8.91693285 2.0619054 7 2 C7 2.66 7 3.32 7 4 C6.34 4 5.68 4 5 4 C5 6.31 5 8.62 5 11 C7.64 11.33 10.28 11.66 13 12 C12.67 12.66 12.34 13.32 12 14 C10.35 14 8.7 14 7 14 C7 15.98 7 17.96 7 20 C6.01 20.33 5.02 20.66 4 21 C1.74384974 22.82891377 1.74384974 22.82891377 1.77294922 25.52197266 C1.78342285 26.5588623 1.79389648 27.59575195 1.8046875 28.6640625 C1.81113281 29.78554688 1.81757812 30.90703125 1.82421875 32.0625 C1.84097656 33.238125 1.85773437 34.41375 1.875 35.625 C1.88853516 37.40003906 1.88853516 37.40003906 1.90234375 39.2109375 C1.92597188 42.14082523 1.95891486 45.0703134 2 48 C3.485 47.505 3.485 47.505 5 47 C5.33 49.97 5.66 52.94 6 56 C8.31 56 10.62 56 13 56 C12.67 53.69 12.34 51.38 12 49 C10.35 48.67 8.7 48.34 7 48 C8 47 9 46 10 45 C9.67 44.34 9.34 43.68 9 43 C9.495 42.401875 9.99 41.80375 10.5 41.1875 C12.28276418 39.02970006 12.28276418 39.02970006 12 36 C11.236875 36 10.47375 36 9.6875 36 C7.79166667 36 5.89583333 36 4 36 C5.6875 33.9375 5.6875 33.9375 8 32 C10.75 32.25 10.75 32.25 13 33 C12.505 31.515 12.505 31.515 12 30 C11.34 29.67 10.68 29.34 10 29 C10.33 28.34 10.66 27.68 11 27 C9.68 27 8.36 27 7 27 C7 27.66 7 28.32 7 29 C6.34 29 5.68 29 5 29 C4.93941406 29.60328125 4.87882813 30.2065625 4.81640625 30.828125 C4.73261719 31.62734375 4.64882812 32.4265625 4.5625 33.25 C4.44068359 34.43335937 4.44068359 34.43335937 4.31640625 35.640625 C4.02365007 37.82364639 3.57935581 39.8773182 3 42 C3.99 42.33 4.98 42.66 6 43 C5.01 43.495 5.01 43.495 4 44 C3.34 43.67 2.68 43.34 2 43 C2 37.72 2 32.44 2 27 C2.66 27 3.32 27 4 27 C4.33 25.68 4.66 24.36 5 23 C5.804375 23.165 6.60875 23.33 7.4375 23.5 C9.7284443 24.03191839 9.7284443 24.03191839 11 24 C11.33 22.02 11.66 20.04 12 18 C12.66 18 13.32 18 14 18 C14 17.34 14 16.68 14 16 C14.66 16 15.32 16 16 16 C16 14.68 16 13.36 16 12 C19.39464446 9.91098803 22.04841529 9.65638394 26 10 C28 12 28 12 28.1875 15 C28 18 28 18 27 20 C26.01 20 25.02 20 24 20 C23.67 20.99 23.34 21.98 23 23 C21.68 23 20.36 23 19 23 C19 23.99 19 24.98 19 26 C19.99 26 20.98 26 22 26 C21.34 28.97 20.68 31.94 20 35 C21.65 35 23.3 35 25 35 C25 35.99 25 36.98 25 38 C23.02 38 21.04 38 19 38 C19 38.99 19 39.98 19 41 C20.98 41 22.96 41 25 41 C25 42.65 25 44.3 25 46 C25.99 46 26.98 46 28 46 C28 44.02 28 42.04 28 40 C29.485 39.505 29.485 39.505 31 39 C31 38.34 31 37.68 31 37 C30.01 37 29.02 37 28 37 C28 36.34 28 35.68 28 35 C28.99 35 29.98 35 31 35 C31 34.01 31 33.02 31 32 C33 30.3125 33 30.3125 35 29 C35.29744153 34.05650599 34.97908145 36.875118 32 41 C31.34 41.99 30.68 42.98 30 44 C33.24565858 44.34055197 33.24565858 44.34055197 35.6875 41.5 C36.8321875 40.2625 36.8321875 40.2625 38 39 C38.5775 39.804375 39.155 40.60875 39.75 41.4375 C41.98126893 43.97866739 42.74456771 44.65120368 46 45 C45.6875 46.9375 45.6875 46.9375 45 49 C40.51024675 50.49658442 35.95682949 50.39065522 31.25 50.62109375 C27.85686422 50.76709073 27.85686422 50.76709073 25 53 C24.34 52.34 23.68 51.68 23 51 C20.79749008 50.53993654 20.79749008 50.53993654 18.375 50.375 C17.55773437 50.30023438 16.74046875 50.22546875 15.8984375 50.1484375 C15.27195312 50.09945312 14.64546875 50.05046875 14 50 C14.33 51.65 14.66 53.3 15 55 C26.88 55 38.76 55 51 55 C51.495 54.01 51.495 54.01 52 53 C52.33 53.66 52.66 54.32 53 55 C54.04800781 55 55.09601562 55 56.17578125 55 C71 55 71 55 73 55.625 C75.3084494 56.29886581 75.3084494 56.29886581 78 54 C79.89520264 54.36790466 79.89520264 54.36790466 82 55 C83.55711074 55.08406811 85.1173852 55.11780938 86.67675781 55.11352539 C88.05773651 55.11341209 88.05773651 55.11341209 89.46661377 55.11329651 C90.45216248 55.10813522 91.43771118 55.10297394 92.453125 55.09765625 C93.97616241 55.09553383 93.97616241 55.09553383 95.52996826 55.09336853 C98.77000892 55.08777516 102.00998025 55.07522385 105.25 55.0625 C107.44791567 55.05748414 109.64583242 55.05292139 111.84375 55.04882812 C117.22919029 55.0378079 122.61459019 55.02107633 128 55 C128.33 55.99 128.66 56.98 129 58 C133.29 57.34 137.58 56.68 142 56 C141.9690625 54.0509375 141.9690625 54.0509375 141.9375 52.0625 C141.91600546 50.70834367 141.92851801 49.35243917 142 48 C142.33 47.67 142.66 47.34 143 47 C142.49984375 46.61714844 141.9996875 46.23429687 141.484375 45.83984375 C140 44 140 44 139.890625 41.44140625 C140.00921875 40.49136719 140.1278125 39.54132812 140.25 38.5625 C140.35828125 37.61503906 140.4665625 36.66757812 140.578125 35.69140625 C140.93600563 33.4082604 141.3893935 31.22660819 142 29 C141.34 29 140.68 29 140 29 C140 28.34 140 27.68 140 27 C138.68 27 137.36 27 136 27 C136 27.66 136 28.32 136 29 C134.68 29.66 133.36 30.32 132 31 C132 31.99 132 32.98 132 34 C132 35.69967317 131.41223129 37.35107482 131 39 C127.7 38.67 124.4 38.34 121 38 C122.32 36.68 123.64 35.36 125 34 C123.73542969 33.96261719 122.47085938 33.92523438 121.16796875 33.88671875 C119.5077827 33.82106167 117.84762778 33.75461424 116.1875 33.6875 C115.35412109 33.66494141 114.52074219 33.64238281 113.66210938 33.61914062 C112.85966797 33.58369141 112.05722656 33.54824219 111.23046875 33.51171875 C110.12288208 33.47244263 110.12288208 33.47244263 108.99291992 33.43237305 C106.51583658 32.89495854 105.67605304 31.84302313 104 30 C103.38125 29.896875 102.7625 29.79375 102.125 29.6875 C98.68084995 28.57321616 97.16357378 25.78987145 95 23 C94.01 22.01 94.01 22.01 93 21 C92.34 21 91.68 21 91 21 C92.65 23.97 94.3 26.94 96 30 C91.71 30 87.42 30 83 30 C84.65 27.03 86.3 24.06 88 21 C86.68 21 85.36 21 84 21 C81.75 18.5 81.75 18.5 80 16 C80.5625 13.625 80.5625 13.625 82 11 C86.56854226 9.10362397 89.29839601 9.05118105 94 10 C96.30221824 10.08021967 98.60656257 10.10766585 100.91015625 10.09765625 C102.88918945 10.09282227 102.88918945 10.09282227 104.90820312 10.08789062 C106.29296948 10.07954767 107.67773511 10.07108292 109.0625 10.0625 C110.45117027 10.05747856 111.83984229 10.05291679 113.22851562 10.04882812 C115.77613181 10.04010768 118.32374237 10.02933585 120.87133789 10.01586914 C127.94004612 9.98001537 127.94004612 9.98001537 131 11 C131.33 13.97 131.66 16.94 132 20 C132.99 20.33 133.98 20.66 135 21 C135.33 21.99 135.66 22.98 136 24 C137.32 24 138.64 24 140 24 C140 20.37 140 16.74 140 13 C140.66 13 141.32 13 142 13 C142 10.03 142 7.06 142 4 C139.36 4 136.72 4 134 4 C134 3.01 134 2.02 134 1 C138.62 0.67 143.24 0.34 148 0 C148 19.47 148 38.94 148 59 C112.25940405 59.74653986 76.55872049 60.09289968 40.8125 60.0625 C39.29188902 60.06121597 39.29188902 60.06121597 37.74055862 60.05990601 C25.16034603 60.04849562 12.58020049 60.02542596 0 60 C0 40.2 0 20.4 0 0 Z " fill="#B7AF8E" transform="translate(5,5)"/>
<path d="M0 0 C51.81 0 103.62 0 157 0 C157 22.44 157 44.88 157 68 C105.19 68 53.38 68 0 68 C0 45.56 0 23.12 0 0 Z M5 5 C5 24.8 5 44.6 5 65 C20.10418091 65.02733514 35.20830664 65.05091707 50.3125 65.0625 C51.42093639 65.06335602 52.52937279 65.06421204 53.67139816 65.06509399 C86.80052016 65.08771851 119.87946824 64.85197509 153 64 C153 44.53 153 25.06 153 5 C104.16 5 55.32 5 5 5 Z " fill="#1F1F1F" transform="translate(0,0)"/>
<path d="M0 0 C6.27 0 12.54 0 19 0 C19.33 0.66 19.66 1.32 20 2 C23.63557988 3.39999924 27.44177306 3.11313168 31.28515625 3.09765625 C31.98265488 3.0962413 32.6801535 3.09482635 33.39878845 3.09336853 C35.62006999 3.08779019 37.84124921 3.07525336 40.0625 3.0625 C41.5605454 3.05748115 43.0585924 3.05291892 44.55664062 3.04882812 C48.37112225 3.03748241 52.18554787 3.01883036 56 3 C59.10551666 3 60.35261084 3.5393715 63 5 C62.34 6.32 61.68 7.64 61 9 C42 9 42 9 38.8359375 8.9296875 C37.12277344 8.90261719 37.12277344 8.90261719 35.375 8.875 C33.65410156 8.84019531 33.65410156 8.84019531 31.8984375 8.8046875 C28.87202091 8.68933514 28.87202091 8.68933514 27 11 C27.66 11.33 28.32 11.66 29 12 C29.4140625 14.06640625 29.4140625 14.06640625 29.625 16.5625 C29.69976562 17.38878906 29.77453125 18.21507813 29.8515625 19.06640625 C29.90054688 19.70449219 29.94953125 20.34257812 30 21 C31.134375 21.12375 32.26875 21.2475 33.4375 21.375 C34.613125 21.58125 35.78875 21.7875 37 22 C38 24 38 24 37.0625 27.125 C36.5365625 28.548125 36.5365625 28.548125 36 30 C35.01 30 34.02 30 33 30 C33.33 28.35 33.66 26.7 34 25 C32.02 25 30.04 25 28 25 C27.34 26.65 26.68 28.3 26 30 C25.34 30 24.68 30 24 30 C24 30.99 24 31.98 24 33 C23.01 33 22.02 33 21 33 C21 33.66 21 34.32 21 35 C21.99 35 22.98 35 24 35 C24 35.66 24 36.32 24 37 C23.01 37.495 23.01 37.495 22 38 C21.34227572 41.02934491 21.34227572 41.02934491 21 44 C20.01 44 19.02 44 18 44 C18 42.35 18 40.7 18 39 C16.02 39 14.04 39 12 39 C12 38.01 12 37.02 12 36 C13.98 36 15.96 36 18 36 C18 35.01 18 34.02 18 33 C16.35 33 14.7 33 13 33 C13.875 26.25 13.875 26.25 15 24 C14.01 24 13.02 24 12 24 C12 23.01 12 22.02 12 21 C12.639375 20.87625 13.27875 20.7525 13.9375 20.625 C14.618125 20.41875 15.29875 20.2125 16 20 C16.33 19.34 16.66 18.68 17 18 C17.99 18 18.98 18 20 18 C20 15.36 20 12.72 20 10 C16.30458414 9.04975021 13.69541586 9.04975021 10 10 C10.20625 10.94875 10.4125 11.8975 10.625 12.875 C10.74875 13.90625 10.8725 14.9375 11 16 C10.34 16.66 9.68 17.32 9 18 C9 16.68 9 15.36 9 14 C8.34 14 7.68 14 7 14 C7 14.66 7 15.32 7 16 C6.34 16 5.68 16 5 16 C5 17.98 5 19.96 5 22 C0.25 23 0.25 23 -2 23 C-2.33 23.66 -2.66 24.32 -3 25 C-3.66 25 -4.32 25 -5 25 C-5 30.28 -5 35.56 -5 41 C-4.01 41 -3.02 41 -2 41 C-2.66 40.67 -3.32 40.34 -4 40 C-4 35.38 -4 30.76 -4 26 C-2.68 26.33 -1.36 26.66 0 27 C0 26.34 0 25.68 0 25 C1.32 25 2.64 25 4 25 C5.00016187 27.00032373 5.49396008 28.83125748 6 31 C4.8553125 30.9071875 4.8553125 30.9071875 3.6875 30.8125 C0.95474688 30.74101915 0.95474688 30.74101915 -0.8125 32.5 C-1.204375 32.995 -1.59625 33.49 -2 34 C1.465 33.505 1.465 33.505 5 33 C5.33 34.65 5.66 36.3 6 38 C4.515 38.495 4.515 38.495 3 39 C3 39.99 3 40.98 3 42 C3.99 42 4.98 42 6 42 C5.67 42.66 5.34 43.32 5 44 C3.515 44.495 3.515 44.495 2 45 C3.32 45.66 4.64 46.32 6 47 C6 49.31 6 51.62 6 54 C3.6875 54.6875 3.6875 54.6875 1 55 C-0.8125 54 -0.8125 54 -2 52 C-2.1875 48.3125 -2.1875 48.3125 -2 45 C-4.28728734 46.83883881 -4.28728734 46.83883881 -4.125 49.625 C-4.08375 50.40875 -4.0425 51.1925 -4 52 C-6 50 -6 50 -6.22705078 46.74365234 C-6.22673382 45.35770705 -6.21541759 43.97173699 -6.1953125 42.5859375 C-6.1924826 41.85629791 -6.18965271 41.12665833 -6.18673706 40.37490845 C-6.17553002 38.04143972 -6.1504251 35.70835297 -6.125 33.375 C-6.11497085 31.79427637 -6.10584489 30.21354673 -6.09765625 28.6328125 C-6.07558905 24.75506086 -6.04105615 20.87759522 -6 17 C-4.35 17.33 -2.7 17.66 -1 18 C-1 16.02 -1 14.04 -1 12 C-0.401875 11.855625 0.19625 11.71125 0.8125 11.5625 C2.56150404 11.1127561 4.28677023 10.57107659 6 10 C5.05125 10.020625 4.1025 10.04125 3.125 10.0625 C0 10 0 10 -2 9 C-2 6.69 -2 4.38 -2 2 C-1.34 2 -0.68 2 0 2 C0 1.34 0 0.68 0 0 Z " fill="#B3AD8A" transform="translate(12,7)"/>
<path d="M0 0 C5.71127058 0.51653732 11.4470652 0.3961944 17.17700195 0.37841797 C19.0815918 0.38421875 19.0815918 0.38421875 21.0246582 0.39013672 C22.23766602 0.38884766 23.45067383 0.38755859 24.70043945 0.38623047 C25.80049316 0.38510254 26.90054688 0.38397461 28.03393555 0.3828125 C30.89032569 0.37485704 30.89032569 0.37485704 33.80200195 -0.74658203 C33.80200195 0.24341797 33.80200195 1.23341797 33.80200195 2.25341797 C34.46200195 2.25341797 35.12200195 2.25341797 35.80200195 2.25341797 C35.47200195 3.57341797 35.14200195 4.89341797 34.80200195 6.25341797 C34.14200195 6.25341797 33.48200195 6.25341797 32.80200195 6.25341797 C32.30700195 5.75841797 32.30700195 5.75841797 31.80200195 5.25341797 C31.80200195 7.23341797 31.80200195 9.21341797 31.80200195 11.25341797 C31.16262695 11.06779297 30.52325195 10.88216797 29.86450195 10.69091797 C28.84356445 10.47435547 28.84356445 10.47435547 27.80200195 10.25341797 C27.47200195 10.58341797 27.14200195 10.91341797 26.80200195 11.25341797 C29.77200195 11.58341797 32.74200195 11.91341797 35.80200195 12.25341797 C37.77588009 17.01394758 37.80902575 20.21829898 36.80200195 25.25341797 C37.46200195 25.25341797 38.12200195 25.25341797 38.80200195 25.25341797 C38.47200195 26.57341797 38.14200195 27.89341797 37.80200195 29.25341797 C34.50200195 28.92341797 31.20200195 28.59341797 27.80200195 28.25341797 C29.12200195 26.93341797 30.44200195 25.61341797 31.80200195 24.25341797 C30.53743164 24.21603516 29.27286133 24.17865234 27.9699707 24.14013672 C26.30978466 24.07447964 24.64962973 24.00803221 22.98950195 23.94091797 C22.15612305 23.91835938 21.32274414 23.89580078 20.46411133 23.87255859 C19.26044922 23.81938477 19.26044922 23.81938477 18.0324707 23.76513672 C16.92488403 23.7258606 16.92488403 23.7258606 15.79492188 23.68579102 C13.31783853 23.14837651 12.47805499 22.0964411 10.80200195 20.25341797 C10.18325195 20.15029297 9.56450195 20.04716797 8.92700195 19.94091797 C5.48285191 18.82663413 3.96557573 16.04328942 1.80200195 13.25341797 C1.14200195 12.59341797 0.48200195 11.93341797 -0.19799805 11.25341797 C-0.85799805 11.25341797 -1.51799805 11.25341797 -2.19799805 11.25341797 C-0.54799805 14.22341797 1.10200195 17.19341797 2.80200195 20.25341797 C-1.48799805 20.25341797 -5.77799805 20.25341797 -10.19799805 20.25341797 C-8.54799805 17.28341797 -6.89799805 14.31341797 -5.19799805 11.25341797 C-6.51799805 11.25341797 -7.83799805 11.25341797 -9.19799805 11.25341797 C-11.44799805 8.75341797 -11.44799805 8.75341797 -13.19799805 6.25341797 C-12.32966527 3.25372293 -11.77599229 1.63874746 -9.13549805 -0.12158203 C-5.88491642 -0.81319514 -3.26685317 -0.39732445 0 0 Z " fill="#BAAF90" transform="translate(98.197998046875,14.74658203125)"/>
<path d="M0 0 C0.99 0.33 1.98 0.66 3 1 C2.34 3.31 1.68 5.62 1 8 C1.99 7.34 2.98 6.68 4 6 C6.125 6.1875 6.125 6.1875 8 7 C8.495 8.485 8.495 8.485 9 10 C10.32 10 11.64 10 13 10 C11.87548273 12.9719385 10.77706209 15.33440687 9 18 C12.63 18 16.26 18 20 18 C19.34 17.05125 18.68 16.1025 18 15.125 C16 12 16 12 16 10 C16.99 9.67 17.98 9.34 19 9 C19.96239452 10.24687592 20.91974009 11.49764969 21.875 12.75 C22.40867188 13.44609375 22.94234375 14.1421875 23.4921875 14.859375 C24.89238914 16.84722603 25.97855265 18.79843386 27 21 C26.01 21.33 25.02 21.66 24 22 C23.34 21.67 22.68 21.34 22 21 C22.01160156 21.77085938 22.02320313 22.54171875 22.03515625 23.3359375 C22.04417969 24.33882812 22.05320313 25.34171875 22.0625 26.375 C22.07410156 27.37273438 22.08570313 28.37046875 22.09765625 29.3984375 C22 32 22 32 21 34 C18.69 34 16.38 34 14 34 C14 33.01 14 32.02 14 31 C15.32 30.67 16.64 30.34 18 30 C18.33 27.69 18.66 25.38 19 23 C17.35 23 15.7 23 14 23 C13.773125 24.0725 13.54625 25.145 13.3125 26.25 C11.85300652 30.41998137 10.66950445 31.67299718 7 34 C6.01 34.33 5.02 34.66 4 35 C3.34 34.01 2.68 33.02 2 32 C2.94875 31.443125 3.8975 30.88625 4.875 30.3125 C8.08878787 27.93429698 8.95565118 26.75965574 10 23 C7.69 22.67 5.38 22.34 3 22 C3 18 3 18 4.5 16.25 C5.2425 15.63125 5.2425 15.63125 6 15 C1.25036599 11.31903365 -2.00708997 10.41330414 -8 10 C-8 10.99 -8 11.98 -8 13 C-7.38125 13.144375 -6.7625 13.28875 -6.125 13.4375 C-4 14 -4 14 -2 15 C-2 15.99 -2 16.98 -2 18 C-3.98 18 -5.96 18 -8 18 C-8 19.65 -8 21.3 -8 23 C-5.69 23 -3.38 23 -1 23 C-1 23.99 -1 24.98 -1 26 C-3.31 26 -5.62 26 -8 26 C-8 28.97 -8 31.94 -8 35 C-8.99 35 -9.98 35 -11 35 C-11 32.03 -11 29.06 -11 26 C-13.64 26 -16.28 26 -19 26 C-19 25.01 -19 24.02 -19 23 C-16.36 23 -13.72 23 -11 23 C-11 21.35 -11 19.7 -11 18 C-12.97536745 18.34786708 -12.97536745 18.34786708 -15 19 C-15.33 19.66 -15.66 20.32 -16 21 C-17.32 21 -18.64 21 -20 21 C-20 25.62 -20 30.24 -20 35 C-21.32 35 -22.64 35 -24 35 C-24.04898438 34.14535156 -24.09796875 33.29070313 -24.1484375 32.41015625 C-24.26058594 30.75306641 -24.26058594 30.75306641 -24.375 29.0625 C-24.44460937 27.96035156 -24.51421875 26.85820313 -24.5859375 25.72265625 C-24.72257812 24.82417969 -24.85921875 23.92570312 -25 23 C-25.66 22.67 -26.32 22.34 -27 22 C-26.32116957 18.88452559 -25.25893098 16.14862279 -23.9375 13.25 C-23.39416016 12.05117188 -23.39416016 12.05117188 -22.83984375 10.828125 C-22.56269531 10.22484375 -22.28554688 9.6215625 -22 9 C-20.68 9.66 -19.36 10.32 -18 11 C-18.33 13.31 -18.66 15.62 -19 18 C-18.34 15.69 -17.68 13.38 -17 11 C-15.68 11 -14.36 11 -13 11 C-13.33 12.32 -13.66 13.64 -14 15 C-13.01 15 -12.02 15 -11 15 C-11 13.02 -11 11.04 -11 9 C-10.34 9 -9.68 9 -9 9 C-9 8.34 -9 7.68 -9 7 C-8.34 7 -7.68 7 -7 7 C-6.67 6.34 -6.34 5.68 -6 5 C-4.35 5.66 -2.7 6.32 -1 7 C-1.020625 6.030625 -1.04125 5.06125 -1.0625 4.0625 C-1 1 -1 1 0 0 Z " fill="#305127" transform="translate(80,16)"/>
<path d="M0 0 C4.29 0 8.58 0 13 0 C12.01 0.99 11.02 1.98 10 3 C12.31 3.33 14.62 3.66 17 4 C17.0272415 5.41655793 17.04650467 6.83327045 17.0625 8.25 C17.07410156 9.03890625 17.08570313 9.8278125 17.09765625 10.640625 C17.00335202 12.91901512 16.56715806 14.8022625 16 17 C15.96111651 19.33300933 15.9551365 21.66709801 16 24 C14.35 24.33 12.7 24.66 11 25 C10.505 23.02 10.505 23.02 10 21 C8.68 20.67 7.36 20.34 6 20 C4.875 13.25 4.875 13.25 6 11 C1.87653174 10.12445231 1.87653174 10.12445231 -2.27514648 10.46655273 C-5.53952718 11.10562377 -8.58383674 11.11210981 -11.91015625 11.09765625 C-13.22951172 11.09443359 -14.54886719 11.09121094 -15.90820312 11.08789062 C-17.29296948 11.07954767 -18.67773511 11.07108292 -20.0625 11.0625 C-21.45117027 11.05747856 -22.83984229 11.05291679 -24.22851562 11.04882812 C-26.77613181 11.04010768 -29.32374237 11.02933585 -31.87133789 11.01586914 C-34.24753392 11.00381664 -36.62377341 11 -39 11 C-40.32 11 -41.64 11 -43 11 C-43.1546875 12.1446875 -43.1546875 12.1446875 -43.3125 13.3125 C-44.04711194 16.18416484 -44.6716065 17.23042094 -47 19 C-47.66 19 -48.32 19 -49 19 C-48.67 16.69 -48.34 14.38 -48 12 C-48.66 12 -49.32 12 -50 12 C-50.33 13.98 -50.66 15.96 -51 18 C-51.78375 17.814375 -52.5675 17.62875 -53.375 17.4375 C-55.97089775 16.74037734 -55.97089775 16.74037734 -58 18 C-57.67 16.68 -57.34 15.36 -57 14 C-55.68 14 -54.36 14 -53 14 C-52.06576355 10.98968256 -51.95550089 10.13349732 -53 7 C-53.66 6.67 -54.32 6.34 -55 6 C-53.68 5.01 -52.36 4.02 -51 3 C-49.68 3.99 -48.36 4.98 -47 6 C-46.67 5.67 -46.34 5.34 -46 5 C-44.64905018 4.90731001 -43.29332909 4.88252674 -41.93920898 4.88647461 C-41.07839218 4.88655014 -40.21757538 4.88662567 -39.33067322 4.88670349 C-38.39526199 4.89186478 -37.45985077 4.89702606 -36.49609375 4.90234375 C-35.54307877 4.9037587 -34.59006378 4.90517365 -33.60816956 4.90663147 C-30.55124835 4.91224848 -27.49439923 4.92480384 -24.4375 4.9375 C-22.37044376 4.94251281 -20.30338638 4.94707609 -18.23632812 4.95117188 C-13.15752412 4.96222344 -8.0787743 4.97949945 -3 5 C-2.67 4.01 -2.34 3.02 -2 2 C-1.34 2 -0.68 2 0 2 C0 2.66 0 3.32 0 4 C0.99 4 1.98 4 3 4 C3 3.34 3 2.68 3 2 C2.01 1.67 1.02 1.34 0 1 C0 0.67 0 0.34 0 0 Z " fill="#428B44" transform="translate(130,5)"/>
<path d="M0 0 C0.66 0 1.32 0 2 0 C3.125 1.75 3.125 1.75 4 4 C3.125 6.25 3.125 6.25 2 8 C0.68 8 -0.64 8 -2 8 C-2.66 9.65 -3.32 11.3 -4 13 C-4.66 13 -5.32 13 -6 13 C-6 14.98 -6 16.96 -6 19 C-6.99 19 -7.98 19 -9 19 C-8.67 17.68 -8.34 16.36 -8 15 C-9.32 15 -10.64 15 -12 15 C-12.12375 16.134375 -12.2475 17.26875 -12.375 18.4375 C-12.684375 20.2009375 -12.684375 20.2009375 -13 22 C-13.66 22.33 -14.32 22.66 -15 23 C-14.67 20.36 -14.34 17.72 -14 15 C-14.99 14.34 -15.98 13.68 -17 13 C-17.103125 13.721875 -17.20625 14.44375 -17.3125 15.1875 C-18 18 -18 18 -19.625 20.625 C-20.07875 21.40875 -20.5325 22.1925 -21 23 C-20.67 23.99 -20.34 24.98 -20 26 C-19.67 26 -19.34 26 -19 26 C-19 30.29 -19 34.58 -19 39 C-19.33 38.34 -19.66 37.68 -20 37 C-20.33 38.65 -20.66 40.3 -21 42 C-21.66 42 -22.32 42 -23 42 C-23.061875 41.071875 -23.12375 40.14375 -23.1875 39.1875 C-23.66443891 35.83098436 -23.66443891 35.83098436 -26.4375 34.375 C-27.283125 33.92125 -28.12875 33.4675 -29 33 C-31.56452594 29.58063208 -31.15940162 26.14444215 -31 22 C-32.32 22 -33.64 22 -35 22 C-35 21.34 -35 20.68 -35 20 C-33.02 20 -31.04 20 -29 20 C-29.33 21.65 -29.66 23.3 -30 25 C-29.01 25 -28.02 25 -27 25 C-26.67 22.69 -26.34 20.38 -26 18 C-28.64 17.67 -31.28 17.34 -34 17 C-33.67 15.68 -33.34 14.36 -33 13 C-34.32 12.67 -35.64 12.34 -37 12 C-35.68 12 -34.36 12 -33 12 C-33.66 10.35 -34.32 8.7 -35 7 C-35.99 7.495 -35.99 7.495 -37 8 C-36.67 6.68 -36.34 5.36 -36 4 C-30.91116018 3.15186003 -26.15976292 2.91541372 -21 3 C-19.68 3 -18.36 3 -17 3 C-15.21722656 3.05220703 -15.21722656 3.05220703 -13.3984375 3.10546875 C-12.0572994 3.13318912 -10.71615326 3.16052278 -9.375 3.1875 C-8.694375 3.21263672 -8.01375 3.23777344 -7.3125 3.26367188 C-5.10606929 3.3300637 -5.10606929 3.3300637 -2 3 C-1.34 2.01 -0.68 1.02 0 0 Z " fill="#BAAF8F" transform="translate(75,12)"/>
<path d="M0 0 C1.32 0 2.64 0 4 0 C4.14695312 0.90492187 4.14695312 0.90492187 4.296875 1.828125 C5.50453042 8.31635225 5.50453042 8.31635225 10 13 C10.66 13 11.32 13 12 13 C12 15.31 12 17.62 12 20 C12.66 20 13.32 20 14 20 C13.67 18.35 13.34 16.7 13 15 C13.66 15 14.32 15 15 15 C15 15.66 15 16.32 15 17 C16.65 17 18.3 17 20 17 C20 12.38 20 7.76 20 3 C21.32 3 22.64 3 24 3 C24.33 2.01 24.66 1.02 25 0 C26.32 0 27.64 0 29 0 C29 1.65 29 3.3 29 5 C26.36 5 23.72 5 21 5 C21 5.99 21 6.98 21 8 C23.64 8 26.28 8 29 8 C29.08131463 9.43655854 29.13933559 10.8744483 29.1875 12.3125 C29.23970703 13.51326172 29.23970703 13.51326172 29.29296875 14.73828125 C28.93801608 17.47851584 28.10633718 18.29171079 26 20 C27.58129029 20.22331199 29.16521089 20.42804644 30.75 20.625 C32.07257813 20.79902344 32.07257813 20.79902344 33.421875 20.9765625 C36.22859878 21.00207817 37.63384866 20.44843844 40 19 C42 22 42 22 42 25 C41.34 25.99 40.68 26.98 40 28 C39.401875 27.835 38.80375 27.67 38.1875 27.5 C35.26142698 26.83118331 32.49632201 27.00505363 29.49609375 27.03515625 C28.14323026 27.04443151 26.79036562 27.05354063 25.4375 27.0625 C24.75236328 27.07087891 24.06722656 27.07925781 23.36132812 27.08789062 C18.22617529 27.11308765 18.22617529 27.11308765 16 26 C13.66429456 26.31628412 11.3312607 26.65246712 9 27 C6.65858824 27.07689501 4.3153072 27.10806803 1.97265625 27.09765625 C0.68681641 27.09443359 -0.59902344 27.09121094 -1.92382812 27.08789062 C-3.26171945 27.07953802 -4.59961007 27.07107311 -5.9375 27.0625 C-7.30273274 27.05747659 -8.66796726 27.05291517 -10.03320312 27.04882812 C-13.35551457 27.03708851 -16.67773408 27.02066679 -20 27 C-20.5534764 24.92446352 -21 23.15634036 -21 21 C-17.37 21 -13.74 21 -10 21 C-9.67 21.66 -9.34 22.32 -9 23 C-8.34 22.34 -7.68 21.68 -7 21 C-4.69649154 20.72312228 -2.37986458 20.54990055 -0.0625 20.4375 C5.05885565 20.20155421 5.05885565 20.20155421 10 19 C9.3530435 15.91202978 9.3530435 15.91202978 7.125 15 C6.42375 14.67 5.7225 14.34 5 14 C3.25 12.375 3.25 12.375 2 11 C0.35 12.98 -1.3 14.96 -3 17 C-3.99 16.01 -4.98 15.02 -6 14 C-5.38125 13.54625 -4.7625 13.0925 -4.125 12.625 C-1.04042995 8.81464877 -0.69126624 4.76609884 0 0 Z " fill="#AFA886" transform="translate(40,34)"/>
<path d="M0 0 C1.43655854 -0.08131463 2.8744483 -0.13933559 4.3125 -0.1875 C5.51326172 -0.23970703 5.51326172 -0.23970703 6.73828125 -0.29296875 C9.53873497 0.06978432 10.18906704 0.90499912 12 3 C12.99 3.66 13.98 4.32 15 5 C14.34 5.61875 13.68 6.2375 13 6.875 C10.7715451 8.75637427 10.7715451 8.75637427 11 11 C11.99 11 12.98 11 14 11 C14 11.66 14 12.32 14 13 C15.32 13 16.64 13 18 13 C17.84518205 15.70931419 17.51827919 17.46584039 15.59765625 19.4453125 C14.10228292 20.67679642 12.5537076 21.8429837 11 23 C11.66 23.33 12.32 23.66 13 24 C18.3444849 21.03084172 20.00171931 18.77281088 22 13 C23.65 13 25.3 13 27 13 C27 15.31 27 17.62 27 20 C25.35 20.33 23.7 20.66 22 21 C22 21.99 22 22.98 22 24 C24.31 24 26.62 24 29 24 C29.33 22.68 29.66 21.36 30 20 C30.66 20 31.32 20 32 20 C32.66 19.34 33.32 18.68 34 18 C35.4783226 20.95664519 35.06032783 23.74229737 35 27 C30.57057728 29.93331452 25.31134711 29.38738261 20.19921875 29.47851562 C15.88772619 29.63330651 13.12420201 29.88410704 10 33 C9.34 32.67 8.68 32.34 8 32 C8 30.68 8 29.36 8 28 C7.44828125 28.34804688 6.8965625 28.69609375 6.328125 29.0546875 C3.37753757 30.25274481 1.81955486 29.85199983 -1.25 29.125 C-2.14203125 28.92132813 -3.0340625 28.71765625 -3.953125 28.5078125 C-4.62859375 28.34023438 -5.3040625 28.17265625 -6 28 C-5.505 26.515 -5.505 26.515 -5 25 C-3.35 25 -1.7 25 0 25 C0 22.03 0 19.06 0 16 C2.31 16 4.62 16 7 16 C7 15.01 7 14.02 7 13 C4.69 13 2.38 13 0 13 C0 11.35 0 9.7 0 8 C1.98 8 3.96 8 6 8 C6 7.01 6 6.02 6 5 C4.02 5 2.04 5 0 5 C0 3.35 0 1.7 0 0 Z " fill="#BAAF8F" transform="translate(72,26)"/>
<path d="M0 0 C6.27 0 12.54 0 19 0 C19.66 1.32 20.32 2.64 21 4 C17 4 13 4 9 4 C8.67 5.32 8.34 6.64 8 8 C8.99 8.33 9.98 8.66 11 9 C10.67 9.66 10.34 10.32 10 11 C10.185625 11.825 10.37125 12.65 10.5625 13.5 C10.706875 14.325 10.85125 15.15 11 16 C10.34 16.66 9.68 17.32 9 18 C9 16.68 9 15.36 9 14 C8.34 14 7.68 14 7 14 C7 14.66 7 15.32 7 16 C6.34 16 5.68 16 5 16 C5 17.98 5 19.96 5 22 C0.25 23 0.25 23 -2 23 C-2.33 23.66 -2.66 24.32 -3 25 C-3.66 25 -4.32 25 -5 25 C-5 30.28 -5 35.56 -5 41 C-4.01 41 -3.02 41 -2 41 C-2.66 40.67 -3.32 40.34 -4 40 C-4 35.38 -4 30.76 -4 26 C-2.68 26.33 -1.36 26.66 0 27 C0 26.34 0 25.68 0 25 C1.32 25 2.64 25 4 25 C5.00016187 27.00032373 5.49396008 28.83125748 6 31 C4.8553125 30.9071875 4.8553125 30.9071875 3.6875 30.8125 C0.95474688 30.74101915 0.95474688 30.74101915 -0.8125 32.5 C-1.204375 32.995 -1.59625 33.49 -2 34 C1.465 33.505 1.465 33.505 5 33 C5.33 34.65 5.66 36.3 6 38 C4.515 38.495 4.515 38.495 3 39 C3 39.99 3 40.98 3 42 C3.99 42 4.98 42 6 42 C5.67 42.66 5.34 43.32 5 44 C3.515 44.495 3.515 44.495 2 45 C3.32 45.66 4.64 46.32 6 47 C6 49.31 6 51.62 6 54 C3.6875 54.6875 3.6875 54.6875 1 55 C-0.8125 54 -0.8125 54 -2 52 C-2.1875 48.3125 -2.1875 48.3125 -2 45 C-4.28728734 46.83883881 -4.28728734 46.83883881 -4.125 49.625 C-4.08375 50.40875 -4.0425 51.1925 -4 52 C-6 50 -6 50 -6.22705078 46.74365234 C-6.22673382 45.35770705 -6.21541759 43.97173699 -6.1953125 42.5859375 C-6.1924826 41.85629791 -6.18965271 41.12665833 -6.18673706 40.37490845 C-6.17553002 38.04143972 -6.1504251 35.70835297 -6.125 33.375 C-6.11497085 31.79427637 -6.10584489 30.21354673 -6.09765625 28.6328125 C-6.07558905 24.75506086 -6.04105615 20.87759522 -6 17 C-4.35 17.33 -2.7 17.66 -1 18 C-1 16.02 -1 14.04 -1 12 C-0.401875 11.855625 0.19625 11.71125 0.8125 11.5625 C2.56150404 11.1127561 4.28677023 10.57107659 6 10 C5.05125 10.020625 4.1025 10.04125 3.125 10.0625 C0 10 0 10 -2 9 C-2 6.69 -2 4.38 -2 2 C-1.34 2 -0.68 2 0 2 C0 1.34 0 0.68 0 0 Z " fill="#ADAA85" transform="translate(12,7)"/>
<path d="M0 0 C1.32 0 2.64 0 4 0 C4 0.66 4 1.32 4 2 C4.66 2 5.32 2 6 2 C5.67 7.61 5.34 13.22 5 19 C3.35 19.33 1.7 19.66 0 20 C-0.28875 19.195625 -0.5775 18.39125 -0.875 17.5625 C-1.73262568 14.8673532 -1.73262568 14.8673532 -4 14 C-4 14.66 -4 15.32 -4 16 C-8.29 15.34 -12.58 14.68 -17 14 C-17.33 15.32 -17.66 16.64 -18 18 C-19.98 18.33 -21.96 18.66 -24 19 C-24.33 18.01 -24.66 17.02 -25 16 C-23.35 16 -21.7 16 -20 16 C-20 15.01 -20 14.02 -20 13 C-23.63 13 -27.26 13 -31 13 C-31 12.34 -31 11.68 -31 11 C-27.7 11 -24.4 11 -21 11 C-21 10.34 -21 9.68 -21 9 C-23.64 9 -26.28 9 -29 9 C-29 8.01 -29 7.02 -29 6 C-23.06 6 -17.12 6 -11 6 C-11 6.99 -11 7.98 -11 9 C-11.99 9.495 -11.99 9.495 -13 10 C-10.14921909 10.76716851 -10.14921909 10.76716851 -7 11 C-5.10041919 9.68681738 -5.10041919 9.68681738 -4 8 C-4.66 8 -5.32 8 -6 8 C-5.67 7.34 -5.34 6.68 -5 6 C-5 5.01 -5 4.02 -5 3 C-4.34 2.34 -3.68 1.68 -3 1 C-2.01 1.33 -1.02 1.66 0 2 C0 1.34 0 0.68 0 0 Z " fill="#B1AA87" transform="translate(141,32)"/>
<path d="M0 0 C0.33 0 0.66 0 1 0 C1 14.52 1 29.04 1 44 C-6.23707337 44.15322794 -13.47393046 44.30470433 -20.71127319 44.44254303 C-24.08463998 44.50719529 -27.45785382 44.57512538 -30.83105469 44.64819336 C-48.59855478 45.03082679 -66.25021525 44.92593761 -84 44 C-83.36578125 43.87753906 -82.7315625 43.75507812 -82.078125 43.62890625 C-79.80283433 43.19303909 -79.80283433 43.19303909 -78.75 40.9375 C-78.5025 40.298125 -78.255 39.65875 -78 39 C-77.01 39.66 -76.02 40.32 -75 41 C-72.98045559 40.66179847 -72.98045559 40.66179847 -71 40 C-53.66666667 40 -36.33333333 40 -19 40 C-18.67 40.99 -18.34 41.98 -18 43 C-15.85270859 42.71926927 -13.70716807 42.42511501 -11.5625 42.125 C-10.36753906 41.96257813 -9.17257813 41.80015625 -7.94140625 41.6328125 C-6.97074219 41.42398438 -6.00007813 41.21515625 -5 41 C-4.505 40.01 -4.505 40.01 -4 39 C-3.34 39.66 -2.68 40.32 -2 41 C-0.68905659 39.91611374 -0.68905659 39.91611374 -0.90234375 37.29125977 C-0.91394531 36.10330811 -0.92554688 34.91535645 -0.9375 33.69140625 C-0.94910156 31.73364258 -0.94910156 31.73364258 -0.9609375 29.73632812 C-0.97943279 27.66315189 -0.99972431 25.59000015 -1.02050781 23.5168457 C-1.09304716 15.60910286 -1.0465105 7.84766077 0 0 Z " fill="#ADA488" transform="translate(152,20)"/>
<path d="M0 0 C2.2892269 0.35549718 2.2892269 0.35549718 5.15625 0.2890625 C5.81625 0.2890625 6.47625 0.2890625 7.15625 0.2890625 C8.9024888 2.0353013 8.28846151 4.28784574 8.29296875 6.61132812 C8.28910156 7.30935547 8.28523438 8.00738281 8.28125 8.7265625 C8.28705078 9.76780273 8.28705078 9.76780273 8.29296875 10.83007812 C8.28288994 16.03578262 8.28288994 16.03578262 7.15625 18.2890625 C3.33709612 16.78868062 1.65678617 14.45640832 -0.84375 11.2890625 C-1.50375 11.2890625 -2.16375 11.2890625 -2.84375 11.2890625 C-1.19375 14.2590625 0.45625 17.2290625 2.15625 20.2890625 C-2.13375 20.2890625 -6.42375 20.2890625 -10.84375 20.2890625 C-9.19375 17.3190625 -7.54375 14.3490625 -5.84375 11.2890625 C-7.16375 11.2890625 -8.48375 11.2890625 -9.84375 11.2890625 C-12.09375 8.7890625 -12.09375 8.7890625 -13.84375 6.2890625 C-12.97541723 3.28936746 -12.42174424 1.674392 -9.78125 -0.0859375 C-6.29381472 -0.82794501 -3.50358081 -0.50217992 0 0 Z " fill="#B2A786" transform="translate(98.84375,14.7109375)"/>
<path d="M0 0 C15.84 0 31.68 0 48 0 C47.67 0.66 47.34 1.32 47 2 C47.66 1.67 48.32 1.34 49 1 C49 0.67 49 0.34 49 0 C50.65 0 52.3 0 54 0 C54 1.65 54 3.3 54 5 C50.58200238 5.7716179 47.4356185 6.12257266 43.93432617 6.11352539 C42.95368698 6.11344986 41.97304779 6.11337433 40.96269226 6.11329651 C39.9166835 6.10813522 38.87067474 6.10297394 37.79296875 6.09765625 C36.71243729 6.0962413 35.63190582 6.09482635 34.51863098 6.09336853 C31.07489224 6.0877808 27.63121902 6.0752305 24.1875 6.0625 C21.84961032 6.05748342 19.51171961 6.05292079 17.17382812 6.04882812 C11.44919647 6.03781538 5.72460292 6.02108941 0 6 C-0.66 4.68 -1.32 3.36 -2 2 C-1.34 1.67 -0.68 1.34 0 1 C0 0.67 0 0.34 0 0 Z " fill="#3F8640" transform="translate(84,55)"/>
<path d="M0 0 C51.375 0 51.375 0 55 2 C54.34 3.32 53.68 4.64 53 6 C40.66666667 6 28.33333333 6 16 6 C15.67 5.01 15.34 4.02 15 3 C14.63261719 3.49113281 14.26523437 3.98226563 13.88671875 4.48828125 C11.19167724 6.64766233 9.21290785 6.29719058 5.8125 6.1875 C4.72582031 6.16042969 3.63914062 6.13335938 2.51953125 6.10546875 C1.68808594 6.07066406 0.85664063 6.03585938 0 6 C0 4 0 2 0 0 Z " fill="#449148" transform="translate(20,10)"/>
<path d="M0 0 C0.66 0 1.32 0 2 0 C2 0.99 2 1.98 2 3 C2.66 3 3.32 3 4 3 C3.67 4.32 3.34 5.64 3 7 C2.34 7 1.68 7 1 7 C0.67 6.67 0.34 6.34 0 6 C0 7.98 0 9.96 0 12 C-0.639375 11.814375 -1.27875 11.62875 -1.9375 11.4375 C-2.9584375 11.2209375 -2.9584375 11.2209375 -4 11 C-4.33 11.33 -4.66 11.66 -5 12 C-2.03 12.33 0.94 12.66 4 13 C4 13.99 4 14.98 4 16 C-3.92 16 -11.84 16 -20 16 C-20 15.01 -20 14.02 -20 13 C-15.545 12.505 -15.545 12.505 -11 12 C-11.66 11.67 -12.32 11.34 -13 11 C-13.99 11.33 -14.98 11.66 -16 12 C-16 8.7 -16 5.4 -16 2 C-12.15033042 1.3583884 -8.53074763 0.94359931 -4.625 1 C-3.42875 1 -2.2325 1 -1 1 C-0.67 0.67 -0.34 0.34 0 0 Z " fill="#B4AA89" transform="translate(130,14)"/>
<path d="M0 0 C4.29 0 8.58 0 13 0 C11.515 1.485 11.515 1.485 10 3 C12.31 3.33 14.62 3.66 17 4 C17.0272415 5.41655793 17.04650467 6.83327045 17.0625 8.25 C17.07410156 9.03890625 17.08570313 9.8278125 17.09765625 10.640625 C17.00335202 12.91901512 16.56715806 14.8022625 16 17 C15.96111651 19.33300933 15.9551365 21.66709801 16 24 C14.35 24.33 12.7 24.66 11 25 C10.67 23.68 10.34 22.36 10 21 C8.68 20.67 7.36 20.34 6 20 C4.75 13.375 4.75 13.375 7 10 C7 8.68 7 7.36 7 6 C5.72125 6.020625 4.4425 6.04125 3.125 6.0625 C-0.75 6.125 -0.75 6.125 -3 5 C-2.67 4.01 -2.34 3.02 -2 2 C-1.34 2 -0.68 2 0 2 C0 2.66 0 3.32 0 4 C0.99 4 1.98 4 3 4 C3 3.34 3 2.68 3 2 C2.01 1.67 1.02 1.34 0 1 C0 0.67 0 0.34 0 0 Z " fill="#B7B08D" transform="translate(130,5)"/>
<path d="M0 0 C1.60379341 -0.05416188 3.20811406 -0.09286638 4.8125 -0.125 C5.70582031 -0.14820313 6.59914062 -0.17140625 7.51953125 -0.1953125 C10 0 10 0 13 2 C13 1.34 13 0.68 13 0 C14.9375 0.8125 14.9375 0.8125 17 2 C17.33 2.99 17.66 3.98 18 5 C20.31 5 22.62 5 25 5 C24.57729585 8.41948729 24.04039751 11.70994713 23 15 C19.2656084 17.85571123 14.53390741 17.15369178 10 17 C10.33 16.01 10.66 15.02 11 14 C11.66 14 12.32 14 13 14 C13.33 12.35 13.66 10.7 14 9 C13.443125 9.28875 12.88625 9.5775 12.3125 9.875 C9.91505355 11.0413253 7.48403061 12.0339881 5 13 C5.33 12.01 5.66 11.02 6 10 C4.68 9.67 3.36 9.34 2 9 C1.855625 7.88625 1.71125 6.7725 1.5625 5.625 C1.21627965 2.17857953 1.21627965 2.17857953 0 0 Z " fill="#B6AF8C" transform="translate(124,46)"/>
<path d="M0 0 C1.32 0 2.64 0 4 0 C5.00016187 2.00032373 5.49396008 3.83125748 6 6 C4.8553125 5.9071875 4.8553125 5.9071875 3.6875 5.8125 C0.95474688 5.74101915 0.95474688 5.74101915 -0.8125 7.5 C-1.4003125 8.2425 -1.4003125 8.2425 -2 9 C1.465 8.505 1.465 8.505 5 8 C5.33 9.65 5.66 11.3 6 13 C5.01 13.33 4.02 13.66 3 14 C3 14.99 3 15.98 3 17 C3.99 17 4.98 17 6 17 C5.67 17.66 5.34 18.32 5 19 C4.01 19.33 3.02 19.66 2 20 C3.32 20.66 4.64 21.32 6 22 C6 24.31 6 26.62 6 29 C1.58400927 30.31286211 1.58400927 30.31286211 -0.75 29.0625 C-3.12305833 25.14695375 -3 20.48507337 -3 16 C-3.33 15.67 -3.66 15.34 -4 15 C-4.07271741 12.64686445 -4.08370868 10.29166332 -4.0625 7.9375 C-4.05347656 6.64714844 -4.04445313 5.35679688 -4.03515625 4.02734375 C-4.02355469 3.02832031 -4.01195312 2.02929688 -4 1 C-2.68 1.33 -1.36 1.66 0 2 C0 1.34 0 0.68 0 0 Z " fill="#ACA683" transform="translate(12,32)"/>
<path d="M0 0 C3.63 0 7.26 0 11 0 C11.33 0.66 11.66 1.32 12 2 C12.66 1.34 13.32 0.68 14 0 C16.43017578 -0.22705078 16.43017578 -0.22705078 19.4453125 -0.1953125 C21.05986328 -0.18564453 21.05986328 -0.18564453 22.70703125 -0.17578125 C23.83496094 -0.15902344 24.96289062 -0.14226563 26.125 -0.125 C27.82849609 -0.11146484 27.82849609 -0.11146484 29.56640625 -0.09765625 C32.37781299 -0.07403098 35.18880298 -0.04109013 38 0 C37.67 1.65 37.34 3.3 37 5 C32.27382588 5.76262664 27.75795287 6.11892423 22.97265625 6.09765625 C21.68681641 6.09443359 20.40097656 6.09121094 19.07617188 6.08789062 C17.73828055 6.07953802 16.40038993 6.07107311 15.0625 6.0625 C13.69726726 6.05747659 12.33203274 6.05291517 10.96679688 6.04882812 C7.64448543 6.03708851 4.32226592 6.02066679 1 6 C0.4465236 3.92446352 0 2.15634036 0 0 Z " fill="#48904A" transform="translate(19,55)"/>
<path d="M0 0 C0.99 0 1.98 0 3 0 C3 0.99 3 1.98 3 3 C4.32 3 5.64 3 7 3 C7 3.99 7 4.98 7 6 C5.02 6 3.04 6 1 6 C1 6.66 1 7.32 1 8 C1.99 8 2.98 8 4 8 C4 9.32 4 10.64 4 12 C4.99 12 5.98 12 7 12 C7 12.99 7 13.98 7 15 C6.01 15 5.02 15 4 15 C4 15.66 4 16.32 4 17 C4.99 17 5.98 17 7 17 C7 17.66 7 18.32 7 19 C6.34 19.33 5.68 19.66 5 20 C4.34227572 23.02934491 4.34227572 23.02934491 4 26 C3.01 26 2.02 26 1 26 C1 24.35 1 22.7 1 21 C-0.98 21 -2.96 21 -5 21 C-5 20.01 -5 19.02 -5 18 C-3.02 18 -1.04 18 1 18 C1 17.01 1 16.02 1 15 C-0.65 15 -2.3 15 -4 15 C-3.125 8.25 -3.125 8.25 -2 6 C-2.99 6 -3.98 6 -5 6 C-5 5.01 -5 4.02 -5 3 C-4.360625 2.87625 -3.72125 2.7525 -3.0625 2.625 C-2.0415625 2.315625 -2.0415625 2.315625 -1 2 C-0.67 1.34 -0.34 0.68 0 0 Z " fill="#1A4517" transform="translate(29,25)"/>
<path d="M0 0 C0 1.98 0 3.96 0 6 C-0.66 5.67 -1.32 5.34 -2 5 C-2.042721 6.66611905 -2.04063832 8.33382885 -2 10 C-1.67 10.33 -1.34 10.66 -1 11 C-0.67 10.01 -0.34 9.02 0 8 C0 9.98 0 11.96 0 14 C-3.81915388 12.49961812 -5.49946383 10.16734582 -8 7 C-8.66 7 -9.32 7 -10 7 C-8.35 9.97 -6.7 12.94 -5 16 C-9.29 16 -13.58 16 -18 16 C-16.35 13.03 -14.7 10.06 -13 7 C-13.66 7 -14.32 7 -15 7 C-15 5 -15 5 -13 3 C-12.34 2.67 -11.68 2.34 -11 2 C-11 2.66 -11 3.32 -11 4 C-2.71428571 0 -2.71428571 0 0 0 Z " fill="#BDB292" transform="translate(106,19)"/>
<path d="M0 0 C5.94 0 11.88 0 18 0 C18 0.99 18 1.98 18 3 C17.01 3.495 17.01 3.495 16 4 C18.97 4.495 18.97 4.495 22 5 C22 5.66 22 6.32 22 7 C18.7 7 15.4 7 12 7 C11.67 8.65 11.34 10.3 11 12 C9.02 12.33 7.04 12.66 5 13 C4.67 12.01 4.34 11.02 4 10 C5.65 10 7.3 10 9 10 C9 9.01 9 8.02 9 7 C5.37 7 1.74 7 -2 7 C-2 6.34 -2 5.68 -2 5 C1.3 5 4.6 5 8 5 C8 4.34 8 3.68 8 3 C5.36 3 2.72 3 0 3 C0 2.01 0 1.02 0 0 Z " fill="#153D13" transform="translate(112,38)"/>
<path d="M0 0 C0.79664063 0.49113281 0.79664063 0.49113281 1.609375 0.9921875 C4.62694157 2.2642989 6.98693023 2.1959363 10.25 2.125 C11.86648437 2.09792969 11.86648437 2.09792969 13.515625 2.0703125 C14.33546875 2.04710937 15.1553125 2.02390625 16 2 C16 2.99 16 3.98 16 5 C13.18806199 5.79821816 10.70176715 6.12253632 7.78222656 6.11352539 C6.96167786 6.11344986 6.14112915 6.11337433 5.29571533 6.11329651 C4.41953552 6.10813522 3.54335571 6.10297394 2.640625 6.09765625 C1.28405792 6.09553383 1.28405792 6.09553383 -0.09991455 6.09336853 C-2.98331027 6.08777911 -5.86662782 6.07522853 -8.75 6.0625 C-10.70703013 6.05748363 -12.66406147 6.05292096 -14.62109375 6.04882812 C-19.41409253 6.03781313 -24.20703302 6.02055574 -29 6 C-29 5.67 -29 5.34 -29 5 C-27.35 4.67 -25.7 4.34 -24 4 C-24 3.34 -24 2.68 -24 2 C-16.08 2 -8.16 2 0 2 C0 1.34 0 0.68 0 0 Z " fill="#B3AC8C" transform="translate(56,58)"/>
<path d="M0 0 C1.32 0.66 2.64 1.32 4 2 C3.67 2.99 3.34 3.98 3 5 C3 5.99 3 6.98 3 8 C1.1875 8.625 1.1875 8.625 -1 9 C-1.99 8.34 -2.98 7.68 -4 7 C-6.39473441 7.35356998 -6.39473441 7.35356998 -9 8 C-10.93651019 8.06533435 -12.87502861 8.08584303 -14.8125 8.0625 C-15.78832031 8.05347656 -16.76414062 8.04445313 -17.76953125 8.03515625 C-18.50558594 8.02355469 -19.24164063 8.01195312 -20 8 C-20 6 -20 4 -20 2 C-18.35425434 1.97311849 -16.70838587 1.95365877 -15.0625 1.9375 C-14.14597656 1.92589844 -13.22945313 1.91429687 -12.28515625 1.90234375 C-10 2 -10 2 -9 3 C-7.11280345 2.63292383 -7.11280345 2.63292383 -5 2 C-4.278125 1.835 -3.55625 1.67 -2.8125 1.5 C-0.99436859 1.15890376 -0.99436859 1.15890376 0 0 Z " fill="#3F7A3C" transform="translate(78,53)"/>
<path d="M0 0 C3.3 0 6.6 0 10 0 C10 0.66 10 1.32 10 2 C8.68 2 7.36 2 6 2 C6.33 2.66 6.66 3.32 7 4 C10.73487777 3.5020163 12.81237635 3.12508244 16 1 C16 3.64 16 6.28 16 9 C11.90274731 10.04167441 8.38504776 9.94409525 4.1875 9.5625 C3.02605469 9.46066406 1.86460938 9.35882813 0.66796875 9.25390625 C-0.21246094 9.17011719 -1.09289062 9.08632813 -2 9 C-2 6.69 -2 4.38 -2 2 C-1.67 2.66 -1.34 3.32 -1 4 C-0.34 4 0.32 4 1 4 C0.67 2.68 0.34 1.36 0 0 Z " fill="#B1AD89" transform="translate(110,46)"/>
<path d="M0 0 C2.64 0 5.28 0 8 0 C8.33 0.66 8.66 1.32 9 2 C7.02 2 5.04 2 3 2 C3 3.65 3 5.3 3 7 C5.31 7 7.62 7 10 7 C10 7.99 10 8.98 10 10 C7.69 10 5.38 10 3 10 C3 12.97 3 15.94 3 19 C2.01 19 1.02 19 0 19 C0 16.03 0 13.06 0 10 C-2.64 10 -5.28 10 -8 10 C-8 9.01 -8 8.02 -8 7 C-5.36 7 -2.72 7 0 7 C0 4.69 0 2.38 0 0 Z " fill="#0C390B" transform="translate(69,32)"/>
<path d="M0 0 C0.33 0 0.66 0 1 0 C1 14.52 1 29.04 1 44 C-7.58 44 -16.16 44 -25 44 C-25 43.01 -25 42.02 -25 41 C-22.03 40.505 -22.03 40.505 -19 40 C-18.67 40.99 -18.34 41.98 -18 43 C-15.85270859 42.71926927 -13.70716807 42.42511501 -11.5625 42.125 C-10.36753906 41.96257813 -9.17257813 41.80015625 -7.94140625 41.6328125 C-6.97074219 41.42398438 -6.00007813 41.21515625 -5 41 C-4.67 40.34 -4.34 39.68 -4 39 C-3.34 39.66 -2.68 40.32 -2 41 C-0.68905659 39.91611374 -0.68905659 39.91611374 -0.90234375 37.29125977 C-0.91394531 36.10330811 -0.92554688 34.91535645 -0.9375 33.69140625 C-0.94523437 32.38623047 -0.95296875 31.08105469 -0.9609375 29.73632812 C-0.97943279 27.66315189 -0.99972431 25.59000015 -1.02050781 23.5168457 C-1.09304716 15.60910286 -1.0465105 7.84766077 0 0 Z " fill="#C7BB9A" transform="translate(152,20)"/>
<path d="M0 0 C5.94 0 11.88 0 18 0 C18 1.98 18 3.96 18 6 C12.06 6 6.12 6 0 6 C0 4.02 0 2.04 0 0 Z " fill="#324D28" transform="translate(113,31)"/>
<path d="M0 0 C0.78375 0.474375 1.5675 0.94875 2.375 1.4375 C3.88948678 2.33898023 5.4235897 3.21179485 7 4 C7.33 4.99 7.66 5.98 8 7 C8.33 7 8.66 7 9 7 C9.25 9.25 9.25 9.25 9 12 C7.125 14.3125 7.125 14.3125 5 16 C4.34 16 3.68 16 3 16 C3.33 13.69 3.66 11.38 4 9 C3.34 9 2.68 9 2 9 C1.67 10.98 1.34 12.96 1 15 C0.21625 14.814375 -0.5675 14.62875 -1.375 14.4375 C-3.97089775 13.74037734 -3.97089775 13.74037734 -6 15 C-5.67 13.68 -5.34 12.36 -5 11 C-3.68 11 -2.36 11 -1 11 C-0.06576355 7.98968256 0.04449911 7.13349732 -1 4 C-1.66 3.67 -2.32 3.34 -3 3 C-2.01 2.01 -1.02 1.02 0 0 Z " fill="#769E66" transform="translate(78,8)"/>
<path d="M0 0 C0.99 0.33 1.98 0.66 3 1 C2.34 3.31 1.68 5.62 1 8 C1.99 7.34 2.98 6.68 4 6 C6.1875 6.375 6.1875 6.375 8 7 C9.125 11.75 9.125 11.75 8 14 C5.49890807 13.58315135 3.37388004 13.19940269 1.125 12 C-1.24409729 10.88513069 -3.15096669 10.60432647 -5.75 10.375 C-6.54921875 10.30023438 -7.3484375 10.22546875 -8.171875 10.1484375 C-8.77515625 10.09945313 -9.3784375 10.05046875 -10 10 C-9.67 9.01 -9.34 8.02 -9 7 C-8.34 7 -7.68 7 -7 7 C-6.67 6.34 -6.34 5.68 -6 5 C-3.525 5.99 -3.525 5.99 -1 7 C-1.020625 6.030625 -1.04125 5.06125 -1.0625 4.0625 C-1 1 -1 1 0 0 Z " fill="#196627" transform="translate(80,16)"/>
<path d="M0 0 C1.32 0 2.64 0 4 0 C4.14695312 0.90492187 4.14695312 0.90492187 4.296875 1.828125 C5.20946904 6.70578282 5.87595723 9.83823388 10 13 C9.67 13.99 9.34 14.98 9 16 C6.11562221 14.70700306 4.12780579 13.34058637 2 11 C0.35 12.98 -1.3 14.96 -3 17 C-3.99 16.01 -4.98 15.02 -6 14 C-5.38125 13.54625 -4.7625 13.0925 -4.125 12.625 C-1.04042995 8.81464877 -0.69126624 4.76609884 0 0 Z " fill="#1F481A" transform="translate(40,34)"/>
<path d="M0 0 C3.3 0 6.6 0 10 0 C9.67 0.66 9.34 1.32 9 2 C9.66 1.67 10.32 1.34 11 1 C11 0.67 11 0.34 11 0 C12.65 0 14.3 0 16 0 C16 1.65 16 3.3 16 5 C11.5621439 6.11165232 7.23043614 6.11527763 2.6875 6.0625 C1.94693359 6.05798828 1.20636719 6.05347656 0.44335938 6.04882812 C-1.37112899 6.03712175 -3.18557534 6.01918898 -5 6 C-5 4.68 -5 3.36 -5 2 C-4.01 2 -3.02 2 -2 2 C-1.34 1.67 -0.68 1.34 0 1 C0 0.67 0 0.34 0 0 Z " fill="#3A823C" transform="translate(122,55)"/>
<path d="M0 0 C1.0209375 -0.01160156 1.0209375 -0.01160156 2.0625 -0.0234375 C7.12155878 -0.00344122 7.12155878 -0.00344122 9.375 2.25 C7.725 2.91 6.075 3.57 4.375 4.25 C4.045 3.92 3.715 3.59 3.375 3.25 C3.045 4.24 2.715 5.23 2.375 6.25 C-1.915 6.25 -6.205 6.25 -10.625 6.25 C-10.955 4.93 -11.285 3.61 -11.625 2.25 C-7.91768304 -0.14549711 -4.26654477 -0.04904074 0 0 Z " fill="#3B883F" transform="translate(113.625,54.75)"/>
<path d="M0 0 C1.12148437 0.00322266 2.24296875 0.00644531 3.3984375 0.00976562 C4.5740625 0.01814453 5.7496875 0.02652344 6.9609375 0.03515625 C8.14429687 0.03966797 9.32765625 0.04417969 10.546875 0.04882812 C13.47661257 0.06064158 16.40625022 0.07711367 19.3359375 0.09765625 C19.6659375 1.08765625 19.9959375 2.07765625 20.3359375 3.09765625 C10.95901442 4.51304087 10.95901442 4.51304087 7.3359375 2.09765625 C6.4696875 2.84015625 6.4696875 2.84015625 5.5859375 3.59765625 C1.51139821 6.31401577 -3.05530239 4.80669627 -7.6640625 4.09765625 C-7.6640625 3.10765625 -7.6640625 2.11765625 -7.6640625 1.09765625 C-5.00228029 -0.23323485 -2.97666854 -0.01503368 0 0 Z " fill="#B3AD88" transform="translate(70.6640625,6.90234375)"/>
<path d="M0 0 C0.99 0.66 1.98 1.32 3 2 C5.01954441 1.66179847 5.01954441 1.66179847 7 1 C11.66666667 1 16.33333333 1 21 1 C21.66 2.32 22.32 3.64 23 5 C13.43 5 3.86 5 -6 5 C-4.68 4.67 -3.36 4.34 -2 4 C-0.71563266 2.0162233 -0.71563266 2.0162233 0 0 Z " fill="#C1B595" transform="translate(74,59)"/>
<path d="M0 0 C0 0.33 0 0.66 0 1 C-3.3 1 -6.6 1 -10 1 C-10.33 1.66 -10.66 2.32 -11 3 C-14.1875 4.3125 -14.1875 4.3125 -18 5 C-18.88558594 4.53335937 -19.77117188 4.06671875 -20.68359375 3.5859375 C-24.84973399 1.593649 -28.32000069 1.44760591 -32.875 1.3125 C-33.65875 1.27833984 -34.4425 1.24417969 -35.25 1.20898438 C-37.16618748 1.12719588 -39.08306715 1.0619054 -41 1 C-41.33 1.66 -41.66 2.32 -42 3 C-42 2.34 -42 1.68 -42 1 C-42.99 0.67 -43.98 0.34 -45 0 C-40.68105045 -0.17025626 -36.36186782 -0.33046988 -32.04223633 -0.48217773 C-30.57892325 -0.53489097 -29.11569905 -0.59014521 -27.65258789 -0.64819336 C-18.34772107 -1.01528073 -9.28497482 -0.96502556 0 0 Z " fill="#C5BB9D" transform="translate(53,6)"/>
<path d="M0 0 C1.32 0.66 2.64 1.32 4 2 C3.68289062 2.63292969 3.36578125 3.26585937 3.0390625 3.91796875 C1.64495753 8.05311469 1.53929479 11.97580212 1.375 16.3125 C1.33632813 17.14845703 1.29765625 17.98441406 1.2578125 18.84570312 C1.16404841 20.89679259 1.08095755 22.94836515 1 25 C0.34 25 -0.32 25 -1 25 C-1.33 21.04 -1.66 17.08 -2 13 C-2.99 13 -3.98 13 -5 13 C-4.32116957 9.88452559 -3.25893098 7.14862279 -1.9375 4.25 C-1.57527344 3.45078125 -1.21304688 2.6515625 -0.83984375 1.828125 C-0.56269531 1.22484375 -0.28554688 0.6215625 0 0 Z " fill="#083A09" transform="translate(58,25)"/>
<path d="M0 0 C4.62 0.66 9.24 1.32 14 2 C14 2.99 14 3.98 14 5 C6.08 5 -1.84 5 -10 5 C-10 4.01 -10 3.02 -10 2 C-6.7 2 -3.4 2 0 2 C0 1.34 0 0.68 0 0 Z " fill="#184416" transform="translate(120,25)"/>
<path d="M0 0 C0.99 0 1.98 0 3 0 C3 0.99 3 1.98 3 3 C4.134375 3.12375 5.26875 3.2475 6.4375 3.375 C7.613125 3.58125 8.78875 3.7875 10 4 C11 6 11 6 10.0625 9.125 C9.711875 10.07375 9.36125 11.0225 9 12 C8.01 12 7.02 12 6 12 C6.33 10.35 6.66 8.7 7 7 C5.02 7 3.04 7 1 7 C0.34 8.65 -0.32 10.3 -1 12 C-1.99 11.67 -2.98 11.34 -4 11 C-2.68 7.37 -1.36 3.74 0 0 Z " fill="#0E390D" transform="translate(39,25)"/>
<path d="M0 0 C1.32 0 2.64 0 4 0 C2.74433095 3.47723736 1.26656844 6.09382458 -1 9 C-0.30132812 9.04898438 0.39734375 9.09796875 1.1171875 9.1484375 C2.02726562 9.22320312 2.93734375 9.29796875 3.875 9.375 C4.77992187 9.44460937 5.68484375 9.51421875 6.6171875 9.5859375 C9 10 9 10 11 12 C5.39 12 -0.22 12 -6 12 C-6 6.90718595 -4.30208774 5.70478137 -1 2 C-0.67 1.34 -0.34 0.68 0 0 Z " fill="#083608" transform="translate(89,26)"/>
<path d="M0 0 C3.14581423 -0.02888514 6.29159469 -0.04675923 9.4375 -0.0625 C10.33533203 -0.07087891 11.23316406 -0.07925781 12.15820312 -0.08789062 C13.01220703 -0.09111328 13.86621094 -0.09433594 14.74609375 -0.09765625 C15.93223267 -0.10551147 15.93223267 -0.10551147 17.14233398 -0.11352539 C19 0 19 0 20 1 C20.99 1 21.98 1 23 1 C25.1875 2 25.1875 2 27 3 C21.71619943 4.08784129 16.61686215 4.14950622 11.25 4.125 C10.38761719 4.12886719 9.52523437 4.13273438 8.63671875 4.13671875 C7.40115234 4.13478516 7.40115234 4.13478516 6.140625 4.1328125 C5.39329102 4.13168457 4.64595703 4.13055664 3.87597656 4.12939453 C2 4 2 4 0 3 C0 2.01 0 1.02 0 0 Z " fill="#AAAD84" transform="translate(97,7)"/>
<path d="M0 0 C0 4.95 0 9.9 0 15 C-0.99 15.495 -0.99 15.495 -2 16 C-2 13.69 -2 11.38 -2 9 C-3.32 8.34 -4.64 7.68 -6 7 C-6 6.01 -6 5.02 -6 4 C-8.64 4 -11.28 4 -14 4 C-14 3.01 -14 2.02 -14 1 C-12.04175306 0.83232136 -10.08339945 0.66588795 -8.125 0.5 C-6.48917969 0.36078125 -6.48917969 0.36078125 -4.8203125 0.21875 C-3.21670436 0.09437042 -1.60842449 0 0 0 Z " fill="#C0B999" transform="translate(153,5)"/>
<path d="M0 0 C2.31 0 4.62 0 7 0 C7 1.32 7 2.64 7 4 C7.99 3.67 8.98 3.34 10 3 C9 6 9 6 7 7 C6.01 7.33 5.02 7.66 4 8 C4 8.66 4 9.32 4 10 C3.34 10 2.68 10 2 10 C0.61767557 8.37373596 -0.71937515 6.7074998 -2 5 C-1.34 3.35 -0.68 1.7 0 0 Z " fill="#BAAF8F" transform="translate(87,16)"/>
<path d="M0 0 C1.67542976 0.28604898 3.34385343 0.61781233 5 1 C5 4.3 5 7.6 5 11 C3.34385343 11.38218767 1.67542976 11.71395102 0 12 C-1 11 -1 11 -1.1328125 8.75 C-1.13023437 7.8425 -1.12765625 6.935 -1.125 6 C-1.12757813 5.0925 -1.13015625 4.185 -1.1328125 3.25 C-1 1 -1 1 0 0 Z " fill="#438B43" transform="translate(141,18)"/>
<path d="M0 0 C4.95 0 9.9 0 15 0 C15.66 1.32 16.32 2.64 17 4 C9.74 4 2.48 4 -5 4 C-5 3.67 -5 3.34 -5 3 C-3.35 2.67 -1.7 2.34 0 2 C0 1.34 0 0.68 0 0 Z " fill="#ACA486" transform="translate(32,60)"/>
<path d="M0 0 C0 0.99 0 1.98 0 3 C-6.75105368 4.12517561 -13.26614928 4.68346268 -20 3 C-19 1 -19 1 -18 0 C-11.82768378 -1.08286249 -6.15848483 -1.02641414 0 0 Z " fill="#ADAE87" transform="translate(61,7)"/>
<path d="M0 0 C0 2.31 0 4.62 0 7 C-3.28696233 7.79953138 -4.71023192 8.09658936 -8 7 C-8 4.69 -8 2.38 -8 0 C-4.71023192 -1.09658936 -3.28696233 -0.79953138 0 0 Z " fill="#397636" transform="translate(147,54)"/>
<path d="M0 0 C2.64 0 5.28 0 8 0 C8 2.31 8 4.62 8 7 C2.25 8.125 2.25 8.125 0 7 C0 4.69 0 2.38 0 0 Z " fill="#266327" transform="translate(10,9)"/>
<path d="M0 0 C2.64 0 5.28 0 8 0 C8 2.31 8 4.62 8 7 C2.25 8.125 2.25 8.125 0 7 C0 4.69 0 2.38 0 0 Z " fill="#3B7439" transform="translate(139,9)"/>
<path d="M0 0 C0.99 0.33 1.98 0.66 3 1 C2.34 1 1.68 1 1 1 C1 1.99 1 2.98 1 4 C1.99 4 2.98 4 4 4 C4 4.66 4 5.32 4 6 C3.01 6.495 3.01 6.495 2 7 C1.34227572 10.02934491 1.34227572 10.02934491 1 13 C0.01 13 -0.98 13 -2 13 C-2 11.35 -2 9.7 -2 8 C-3.98 8 -5.96 8 -8 8 C-8 7.01 -8 6.02 -8 5 C-5.69 5 -3.38 5 -1 5 C-0.67 3.35 -0.34 1.7 0 0 Z " fill="#113C0F" transform="translate(32,38)"/>
<path d="M0 0 C1.65 0.33 3.3 0.66 5 1 C5 4.3 5 7.6 5 11 C3.35 11.33 1.7 11.66 0 12 C-1.00007341 8.8886605 -0.87515553 7.11166412 0 4 C0 2.68 0 1.36 0 0 Z " fill="#418642" transform="translate(141,40)"/>
<path d="M0 0 C1.41655793 -0.0272415 2.83327045 -0.04650467 4.25 -0.0625 C5.43335937 -0.07990234 5.43335937 -0.07990234 6.640625 -0.09765625 C8.90691002 -0.00385306 10.8288895 0.36758937 13 1 C13 1.66 13 2.32 13 3 C12.34 3.66 11.68 4.32 11 5 C11 5.99 11 6.98 11 8 C10.01 8.33 9.02 8.66 8 9 C7.236875 8.195625 6.47375 7.39125 5.6875 6.5625 C3.20569102 3.83200976 3.20569102 3.83200976 0 3 C0 2.01 0 1.02 0 0 Z " fill="#BDB191" transform="translate(116,15)"/>
<path d="M0 0 C2.31 0 4.62 0 7 0 C7 2.31 7 4.62 7 7 C4.6875 7.6875 4.6875 7.6875 2 8 C0.125 6.875 0.125 6.875 -1 5 C-0.6875 2.3125 -0.6875 2.3125 0 0 Z " fill="#3A7537" transform="translate(11,54)"/>
<path d="M0 0 C3.3 0 6.6 0 10 0 C10 1.98 10 3.96 10 6 C6.7 6 3.4 6 0 6 C0 4 0 2 0 0 Z " fill="#428D45" transform="translate(58,55)"/>
<path d="M0 0 C0.66 0.33 1.32 0.66 2 1 C1.67 3.97 1.34 6.94 1 10 C1.66 10 2.32 10 3 10 C2.67 11.32 2.34 12.64 2 14 C-1.3 13.67 -4.6 13.34 -8 13 C-4.25 9.125 -4.25 9.125 -2 8 C-0.9238946 4.42464981 -0.9238946 4.42464981 -2 1 C-1.34 0.67 -0.68 0.34 0 0 Z " fill="#B4AC8A" transform="translate(134,30)"/>
<path d="M0 0 C0.33 0 0.66 0 1 0 C1 14.52 1 29.04 1 44 C-0.32 43.34 -1.64 42.68 -3 42 C-2.34 41.34 -1.68 40.68 -1 40 C-0.73752715 37.05365335 -0.73752715 37.05365335 -0.83984375 33.59375 C-0.85080078 32.29179688 -0.86175781 30.98984375 -0.87304688 29.6484375 C-0.89378597 28.26561362 -0.91527526 26.8828008 -0.9375 25.5 C-1.05546722 16.93660555 -1.14384771 8.50365461 0 0 Z " fill="#D1C9AE" transform="translate(152,20)"/>
<path d="M0 0 C0.99 0.33 1.98 0.66 3 1 C3 1.99 3 2.98 3 4 C3.66 3.67 4.32 3.34 5 3 C5 5.64 5 8.28 5 11 C3.35 11.33 1.7 11.66 0 12 C-0.87803368 8.26835686 -1.17423601 4.83319229 -1 1 C-0.67 0.67 -0.34 0.34 0 0 Z " fill="#3C803B" transform="translate(12,18)"/>
<path d="M0 0 C0.66 0 1.32 0 2 0 C3.125 1.75 3.125 1.75 4 4 C3.125 6.25 3.125 6.25 2 8 C0.68 8 -0.64 8 -2 8 C-2.66 8.66 -3.32 9.32 -4 10 C-4.66 9.67 -5.32 9.34 -6 9 C-6 9.66 -6 10.32 -6 11 C-6.66 11 -7.32 11 -8 11 C-8 7 -8 7 -7 5 C-5.65810043 4.32905022 -4.30331311 3.68332414 -2.9375 3.0625 C-0.83793327 2.15020819 -0.83793327 2.15020819 0 0 Z " fill="#ABA782" transform="translate(75,12)"/>
<path d="M0 0 C-0.33 1.65 -0.66 3.3 -1 5 C-5.65537393 5.83796731 -9.37078475 6.0161692 -14 5 C-10.39689122 0.59620038 -5.480803 -0.32240018 0 0 Z " fill="#3A833C" transform="translate(57,55)"/>
<path d="M0 0 C0.928125 0.33 1.85625 0.66 2.8125 1 C5.92029291 2.14967004 5.92029291 2.14967004 9 2 C9.99 3.485 9.99 3.485 11 5 C6.59085217 6.10228696 2.51617599 6.07654536 -2 6 C-2 2 -2 2 0 0 Z " fill="#397F3A" transform="translate(44,10)"/>
<path d="M0 0 C2.14206884 2.11626078 4.23114672 4.26554103 6.25 6.5 C7.06210938 7.38171875 7.06210938 7.38171875 7.890625 8.28125 C8.43976563 9.13203125 8.43976563 9.13203125 9 10 C8.67 10.99 8.34 11.98 8 13 C3.78247239 11.43795274 1.62600654 8.54865748 -1 5 C-1.8125 2.625 -1.8125 2.625 -2 1 C-1.34 0.67 -0.68 0.34 0 0 Z " fill="#0E3C0D" transform="translate(98,25)"/>
<path d="M0 0 C0.66 0.33 1.32 0.66 2 1 C2 2.65 2 4.3 2 6 C1.67 5.01 1.34 4.02 1 3 C-0.423125 3.2784375 -0.423125 3.2784375 -1.875 3.5625 C-5 4 -5 4 -7 3 C-6.34 6.3 -5.68 9.6 -5 13 C-9.43076923 15.09230769 -9.43076923 15.09230769 -12.3125 14.625 C-12.869375 14.41875 -13.42625 14.2125 -14 14 C-13.67 13.01 -13.34 12.02 -13 11 C-11.35 11 -9.7 11 -8 11 C-8 8.03 -8 5.06 -8 2 C-5.36 2 -2.72 2 0 2 C0 1.34 0 0.68 0 0 Z " fill="#C2B595" transform="translate(80,40)"/>
<path d="M0 0 C0.33 1.65 0.66 3.3 1 5 C0.2575 5.103125 -0.485 5.20625 -1.25 5.3125 C-4.17014018 6.04253504 -5.73187554 7.06789398 -8 9 C-8.66 8.67 -9.32 8.34 -10 8 C-10 7.34 -10 6.68 -10 6 C-9.34 6 -8.68 6 -8 6 C-8 4.35 -8 2.7 -8 1 C-3.375 -1.125 -3.375 -1.125 0 0 Z " fill="#B3AF8C" transform="translate(90,50)"/>
<path d="M0 0 C2.31 0.66 4.62 1.32 7 2 C7 2.66 7 3.32 7 4 C5.68 4 4.36 4 3 4 C3 4.66 3 5.32 3 6 C2.34 6 1.68 6 1 6 C0.93941406 6.60328125 0.87882813 7.2065625 0.81640625 7.828125 C0.69072266 9.02695312 0.69072266 9.02695312 0.5625 10.25 C0.48128906 11.03890625 0.40007813 11.8278125 0.31640625 12.640625 C0.02365007 14.82364639 -0.42064419 16.8773182 -1 19 C-0.01 19.33 0.98 19.66 2 20 C1.34 20.33 0.68 20.66 0 21 C-0.66 20.67 -1.32 20.34 -2 20 C-2 14.72 -2 9.44 -2 4 C-1.34 4 -0.68 4 0 4 C0 2.68 0 1.36 0 0 Z " fill="#BDB391" transform="translate(9,28)"/>
<path d="M0 0 C4.29 0 8.58 0 13 0 C6.90510949 4.87591241 6.90510949 4.87591241 2 6 C-0.875 5.625 -0.875 5.625 -3 5 C-2.67 4.01 -2.34 3.02 -2 2 C-1.34 2 -0.68 2 0 2 C0 2.66 0 3.32 0 4 C0.99 4 1.98 4 3 4 C3 3.34 3 2.68 3 2 C2.01 1.67 1.02 1.34 0 1 C0 0.67 0 0.34 0 0 Z " fill="#A9A885" transform="translate(130,5)"/>
<path d="M0 0 C2.97 0 5.94 0 9 0 C9.6875 2.3125 9.6875 2.3125 10 5 C8.5625 6.8125 8.5625 6.8125 7 8 C6.67 7.01 6.34 6.02 6 5 C4.02 5 2.04 5 0 5 C0 3.35 0 1.7 0 0 Z " fill="#B5AA8B" transform="translate(72,26)"/>
<path d="M0 0 C0.33 0 0.66 0 1 0 C1 2.31 1 4.62 1 7 C1.66 7 2.32 7 3 7 C2.67 5.35 2.34 3.7 2 2 C2.66 2 3.32 2 4 2 C4 2.66 4 3.32 4 4 C4.99 4 5.98 4 7 4 C7 4.99 7 5.98 7 7 C7.66 7.33 8.32 7.66 9 8 C8.01 8.99 7.02 9.98 6 11 C5.34 10.34 4.68 9.68 4 9 C1.34462628 8.43479997 -1.29144713 8.26211802 -4 8 C-3.67 7.34 -3.34 6.68 -3 6 C-2.34 6 -1.68 6 -1 6 C-1.020625 5.195625 -1.04125 4.39125 -1.0625 3.5625 C-1 1 -1 1 0 0 Z " fill="#A3AD83" transform="translate(51,47)"/>
<path d="M0 0 C0.66 0.33 1.32 0.66 2 1 C2 1.99 2 2.98 2 4 C2.99 4 3.98 4 5 4 C4.67 4.66 4.34 5.32 4 6 C3.01 6.33 2.02 6.66 1 7 C1.99 7.66 2.98 8.32 4 9 C2.02 9 0.04 9 -2 9 C-2.33 9.66 -2.66 10.32 -3 11 C-3.66 8.36 -4.32 5.72 -5 3 C-4.360625 2.690625 -3.72125 2.38125 -3.0625 2.0625 C-1.06389179 1.1654837 -1.06389179 1.1654837 0 0 Z " fill="#95A879" transform="translate(13,45)"/>
<path d="M0 0 C0.66 0.66 1.32 1.32 2 2 C1.9375 4.375 1.9375 4.375 1 7 C-1.63817362 9.49932238 -3.54621974 10.84873991 -7 12 C-7.66 11.01 -8.32 10.02 -9 9 C-8.071875 8.443125 -7.14375 7.88625 -6.1875 7.3125 C-3.0580593 5.04212145 -1.70245949 3.40491897 0 0 Z " fill="#143D11" transform="translate(91,39)"/>
<path d="M0 0 C0.99 0.33 1.98 0.66 3 1 C3 1.99 3 2.98 3 4 C3.99 4 4.98 4 6 4 C6.6875 5.8125 6.6875 5.8125 7 8 C5.15840327 10.48615558 3.99529289 11.00156904 1 12 C1.33 11.01 1.66 10.02 2 9 C1.34 8.67 0.68 8.34 0 8 C-0.6875 4.5 -0.6875 4.5 -1 1 C-0.67 0.67 -0.34 0.34 0 0 Z " fill="#B4AC8B" transform="translate(128,47)"/>
<path d="M0 0 C1.65 0 3.3 0 5 0 C5 2.31 5 4.62 5 7 C0.25 8.125 0.25 8.125 -2 7 C-1.34 4.69 -0.68 2.38 0 0 Z " fill="#C2B696" transform="translate(94,39)"/>
<path d="M0 0 C0.99 0 1.98 0 3 0 C3 0.99 3 1.98 3 3 C4.32 3 5.64 3 7 3 C7 3.99 7 4.98 7 6 C5.02 6 3.04 6 1 6 C1 7.98 1 9.96 1 12 C0.34 11.67 -0.32 11.34 -1 11 C-1 8.69 -1 6.38 -1 4 C-2.32 3.67 -3.64 3.34 -5 3 C-4.360625 2.87625 -3.72125 2.7525 -3.0625 2.625 C-2.0415625 2.315625 -2.0415625 2.315625 -1 2 C-0.67 1.34 -0.34 0.68 0 0 Z " fill="#1B4718" transform="translate(29,25)"/>
<path d="M0 0 C11.88 0 23.76 0 36 0 C32.70509863 2.19660092 31.83857283 2.22522728 28.03515625 2.125 C27.07029297 2.10953125 26.10542969 2.0940625 25.11132812 2.078125 C23.08267973 2.0261417 21.05403388 1.97405875 19.02539062 1.921875 C18.05923828 1.90640625 17.09308594 1.8909375 16.09765625 1.875 C15.21601807 1.85179687 14.33437988 1.82859375 13.42602539 1.8046875 C10.82283743 2.01426286 9.23216811 2.68280366 7 4 C7 3.01 7 2.02 7 1 C4.69 1 2.38 1 0 1 C0 0.67 0 0.34 0 0 Z " fill="#C9C0A1" transform="translate(54,6)"/>
<path d="M0 0 C2.475 0.99 2.475 0.99 5 2 C4.67 3.32 4.34 4.64 4 6 C3.67 6 3.34 6 3 6 C2.7525 6.639375 2.505 7.27875 2.25 7.9375 C1 10 1 10 -1 10.8125 C-3 11 -3 11 -5 10 C-4.67 9.01 -4.34 8.02 -4 7 C-4 7.66 -4 8.32 -4 9 C-3.34 8.34 -2.68 7.68 -2 7 C-2 6.34 -2 5.68 -2 5 C-1.34 4.67 -0.68 4.34 0 4 C0 2.68 0 1.36 0 0 Z " fill="#AEA984" transform="translate(76,45)"/>
<path d="M0 0 C2.00841268 0.01421885 4.01537247 0.13420475 6.01953125 0.265625 C4.8677977 2.73362547 3.9716956 4.31346065 2.01953125 6.265625 C-1.10546875 6.390625 -1.10546875 6.390625 -3.98046875 6.265625 C-4.31046875 5.605625 -4.64046875 4.945625 -4.98046875 4.265625 C-3.72152968 1.74774686 -2.88459378 0.38688832 0 0 Z " fill="#3C823D" transform="translate(98.98046875,54.734375)"/>
<path d="M0 0 C0.33 0.66 0.66 1.32 1 2 C4.63 2 8.26 2 12 2 C11.67 2.99 11.34 3.98 11 5 C11 4.34 11 3.68 11 3 C6.545 3.495 6.545 3.495 2 4 C2 4.99 2 5.98 2 7 C1.34 7 0.68 7 0 7 C-0.33 8.65 -0.66 10.3 -1 12 C-1.99 12.33 -2.98 12.66 -4 13 C-4.66 12.34 -5.32 11.68 -6 11 C-4.68 10.67 -3.36 10.34 -2 10 C-2.04125 8.906875 -2.0825 7.81375 -2.125 6.6875 C-2 3 -2 3 0 0 Z " fill="#989A78" transform="translate(109,43)"/>
<path d="M0 0 C1.4370809 -0.05422947 2.87475462 -0.09289723 4.3125 -0.125 C5.11300781 -0.14820313 5.91351563 -0.17140625 6.73828125 -0.1953125 C9 0 9 0 12 2 C12 2.66 12 3.32 12 4 C10.35 3.67 8.7 3.34 7 3 C6.67 3.66 6.34 4.32 6 5 C4.35 4.67 2.7 4.34 1 4 C0.67 2.68 0.34 1.36 0 0 Z " fill="#BAAF8F" transform="translate(121,5)"/>
<path d="M0 0 C0.33 0 0.66 0 1 0 C1 2.97 1 5.94 1 9 C2.32 9.33 3.64 9.66 5 10 C5 10.66 5 11.32 5 12 C2.69 12 0.38 12 -2 12 C-1.67 10.68 -1.34 9.36 -1 8 C-2.32 7.67 -3.64 7.34 -5 7 C-3.68 7 -2.36 7 -1 7 C-1.33 6.01 -1.66 5.02 -2 4 C-1.0625 1.8125 -1.0625 1.8125 0 0 Z " fill="#C1B494" transform="translate(43,17)"/>
<path d="M0 0 C1.32 0 2.64 0 4 0 C4 0.66 4 1.32 4 2 C4.66 2 5.32 2 6 2 C6 3.32 6 4.64 6 6 C3.36 6 0.72 6 -2 6 C-2 4.68 -2 3.36 -2 2 C-1.34 2 -0.68 2 0 2 C0 1.34 0 0.68 0 0 Z " fill="#1C4C1B" transform="translate(141,32)"/>
<path d="M0 0 C1.32 0 2.64 0 4 0 C5.00016187 2.00032373 5.49396008 3.83125748 6 6 C3.36 6 0.72 6 -2 6 C-2 4.68 -2 3.36 -2 2 C-1.34 2 -0.68 2 0 2 C0 1.34 0 0.68 0 0 Z " fill="#1F4E1D" transform="translate(12,32)"/>
<path d="M0 0 C5.94 0 11.88 0 18 0 C18 1.98 18 3.96 18 6 C17.67 6 17.34 6 17 6 C17 4.35 17 2.7 17 1 C12.38 1 7.76 1 3 1 C3 2.32 3 3.64 3 5 C2.01 5.33 1.02 5.66 0 6 C0 4.02 0 2.04 0 0 Z " fill="#22521D" transform="translate(113,31)"/>
<path d="M0 0 C2.64 0 5.28 0 8 0 C7.01 1.98 6.02 3.96 5 6 C3.35 6 1.7 6 0 6 C-1.24546405 3.50907189 -0.7767578 2.58919267 0 0 Z " fill="#47924A" transform="translate(36,10)"/>
<path d="M0 0 C6.52307692 -0.36923077 6.52307692 -0.36923077 8.9375 1.5 C9.288125 1.995 9.63875 2.49 10 3 C6.09971775 5.60018816 2.52565431 5.15085514 -2 5 C-1.34 4.34 -0.68 3.68 0 3 C0 2.01 0 1.02 0 0 Z " fill="#ACA387" transform="translate(96,60)"/>
<path d="M0 0 C1.32 0.66 2.64 1.32 4 2 C2.68775452 5.93673644 1.08089673 8.22719294 -2 11 C-2.99 10.67 -3.98 10.34 -5 10 C-3.35 6.7 -1.7 3.4 0 0 Z " fill="#184515" transform="translate(58,25)"/>
<path d="M0 0 C2.3125 -0.3125 2.3125 -0.3125 5 0 C6.8125 2.5 6.8125 2.5 8 5 C4.71303767 5.79953138 3.28976808 6.09658936 0 5 C0 3.35 0 1.7 0 0 Z " fill="#3C833E" transform="translate(84,10)"/>
<path d="M0 0 C0.5775 0.165 1.155 0.33 1.75 0.5 C4.26664369 1.14462031 4.26664369 1.14462031 8 1 C8 2.32 8 3.64 8 5 C5.6875 5.625 5.6875 5.625 3 6 C2.01 5.34 1.02 4.68 0 4 C0 2.68 0 1.36 0 0 Z " fill="#347D38" transform="translate(66,10)"/>
<path d="M0 0 C0.33 0 0.66 0 1 0 C1.0270043 1.45823212 1.04639787 2.91660675 1.0625 4.375 C1.07410156 5.18710937 1.08570312 5.99921875 1.09765625 6.8359375 C1 9 1 9 0 11 C-2.31 11 -4.62 11 -7 11 C-7 10.01 -7 9.02 -7 8 C-3.535 7.505 -3.535 7.505 0 7 C0 4.69 0 2.38 0 0 Z " fill="#123D10" transform="translate(101,39)"/>
<path d="M0 0 C2 1.4375 2 1.4375 4 4 C4.35442445 7.02824418 4.23347235 9.96485939 4 13 C3.01 13 2.02 13 1 13 C1.33 12.34 1.66 11.68 2 11 C1.34 10.67 0.68 10.34 0 10 C0.33 9.67 0.66 9.34 1 9 C0.67 9 0.34 9 0 9 C-1.125 2.25 -1.125 2.25 0 0 Z " fill="#ABA380" transform="translate(148,10)"/>
<path d="M0 0 C0.77085938 0.03738281 1.54171875 0.07476562 2.3359375 0.11328125 C3.11195312 0.13777344 3.88796875 0.16226563 4.6875 0.1875 C6.7109375 0.42578125 6.7109375 0.42578125 8.7109375 1.42578125 C8.7109375 2.08578125 8.7109375 2.74578125 8.7109375 3.42578125 C3.7609375 3.75578125 -1.1890625 4.08578125 -6.2890625 4.42578125 C-2.2890625 0.42578125 -2.2890625 0.42578125 0 0 Z " fill="#C2B696" transform="translate(107.2890625,59.57421875)"/>
<path d="M0 0 C3.3 0 6.6 0 10 0 C10 0.33 10 0.66 10 1 C9.071875 1.2475 8.14375 1.495 7.1875 1.75 C3.83541675 3.06454245 2.8122197 3.97963384 1 7 C0.67 6.67 0.34 6.34 0 6 C-0.66 6.99 -1.32 7.98 -2 9 C-2 6.69 -2 4.38 -2 2 C-1.67 2.66 -1.34 3.32 -1 4 C-0.34 4 0.32 4 1 4 C0.67 2.68 0.34 1.36 0 0 Z " fill="#C3B897" transform="translate(110,46)"/>
<path d="M0 0 C1.65 0.33 3.3 0.66 5 1 C5 2.32 5 3.64 5 5 C4.01 5.495 4.01 5.495 3 6 C3.33 7.32 3.66 8.64 4 10 C3.34 10 2.68 10 2 10 C0.61767557 8.37373596 -0.71937515 6.7074998 -2 5 C-1.34 3.35 -0.68 1.7 0 0 Z " fill="#AFA785" transform="translate(87,16)"/>
<path d="M0 0 C1.65 0.33 3.3 0.66 5 1 C4.67 2.65 4.34 4.3 4 6 C-0.75 5.25 -0.75 5.25 -3 3 C-2.01 2.34 -1.02 1.68 0 1 C0 0.67 0 0.34 0 0 Z " fill="#3C843E" transform="translate(133,10)"/>
<path d="M0 0 C1.134375 0.020625 2.26875 0.04125 3.4375 0.0625 C3.4375 3.0625 3.4375 3.0625 2.4375 5.0625 C0.4575 5.0625 -1.5225 5.0625 -3.5625 5.0625 C-4.125 3.125 -4.125 3.125 -4.5625 1.0625 C-3.5625 0.0625 -3.5625 0.0625 0 0 Z " fill="#539750" transform="translate(106.5625,55.9375)"/>
<path d="M0 0 C1.32 0 2.64 0 4 0 C4.33 2.31 4.66 4.62 5 7 C4.01 7.66 3.02 8.32 2 9 C3.32 9.33 4.64 9.66 6 10 C4.35 10.33 2.7 10.66 1 11 C1.875 4.25 1.875 4.25 3 2 C2.01 2 1.02 2 0 2 C0 1.34 0 0.68 0 0 Z " fill="#0F380D" transform="translate(24,29)"/>
<path d="M0 0 C0.99 0.33 1.98 0.66 3 1 C3 1.99 3 2.98 3 4 C3.928125 4.2165625 3.928125 4.2165625 4.875 4.4375 C7 5 7 5 9 6 C8.67 6.66 8.34 7.32 8 8 C5.66705225 8.04241723 3.33297433 8.04092937 1 8 C0 7 0 7 -0.0625 3.4375 C-0.041875 2.303125 -0.02125 1.16875 0 0 Z " fill="#144B14" transform="translate(69,25)"/>
<path d="M0 0 C0.99 0.33 1.98 0.66 3 1 C2.67 1.99 2.34 2.98 2 4 C1.34 4 0.68 4 0 4 C0 5.98 0 7.96 0 10 C-0.99 10 -1.98 10 -3 10 C-3 7.03 -3 4.06 -3 1 C-2.01 1.33 -1.02 1.66 0 2 C0 1.34 0 0.68 0 0 Z " fill="#BDB193" transform="translate(69,21)"/>
<path d="M0 0 C0.33 0.66 0.66 1.32 1 2 C0.01 2.495 0.01 2.495 -1 3 C-1.65772428 6.02934491 -1.65772428 6.02934491 -2 9 C-2.78375 8.814375 -3.5675 8.62875 -4.375 8.4375 C-6.97089775 7.74037734 -6.97089775 7.74037734 -9 9 C-8.67 7.68 -8.34 6.36 -8 5 C-6.68 5 -5.36 5 -4 5 C-4 4.01 -4 3.02 -4 2 C-2.68 1.34 -1.36 0.68 0 0 Z " fill="#329B45" transform="translate(81,14)"/>
<path d="M0 0 C-0.33 1.32 -0.66 2.64 -1 4 C-1.33 3.34 -1.66 2.68 -2 2 C-2.33 2.66 -2.66 3.32 -3 4 C-3.66 4 -4.32 4 -5 4 C-5 3.34 -5 2.68 -5 2 C-5.99 2.33 -6.98 2.66 -8 3 C-10.232269 2.91382274 -12.46238486 2.76077759 -14.6875 2.5625 C-15.86699219 2.46066406 -17.04648438 2.35882813 -18.26171875 2.25390625 C-19.61716797 2.12822266 -19.61716797 2.12822266 -21 2 C-21 1.67 -21 1.34 -21 1 C-18.06255476 0.83231709 -15.12505096 0.66581142 -12.1875 0.5 C-11.35412109 0.45230469 -10.52074219 0.40460937 -9.66210938 0.35546875 C-8.85966797 0.31035156 -8.05722656 0.26523438 -7.23046875 0.21875 C-6.49207764 0.17685547 -5.75368652 0.13496094 -4.99291992 0.09179688 C-3.33009506 0.01520467 -1.6645879 0 0 0 Z " fill="#C4BA9C" transform="translate(121,5)"/>
<path d="M0 0 C2.64 0.33 5.28 0.66 8 1 C7.67 1.66 7.34 2.32 7 3 C5.35 3 3.7 3 2 3 C2 4.98 2 6.96 2 9 C0.68 9 -0.64 9 -2 9 C-1.34 6.03 -0.68 3.06 0 0 Z " fill="#BBB28F" transform="translate(10,16)"/>
<path d="M0 0 C2.475 0.99 2.475 0.99 5 2 C4.67 2.99 4.34 3.98 4 5 C2.02 5.33 0.04 5.66 -2 6 C-2 2 -2 2 0 0 Z " fill="#377E39" transform="translate(33,55)"/>
<path d="M0 0 C0.33 0 0.66 0 1 0 C1.36923077 7.50769231 1.36923077 7.50769231 -0.5 10 C-0.995 10.33 -1.49 10.66 -2 11 C-0.68 11.33 0.64 11.66 2 12 C1.67 12.99 1.34 13.98 1 15 C-2.3270336 12.7819776 -2.88292386 11.72358715 -4 8 C-3.67 7.34 -3.34 6.68 -3 6 C-2.34 6 -1.68 6 -1 6 C-0.67 4.02 -0.34 2.04 0 0 Z " fill="#97A67B" transform="translate(68,43)"/>
<path d="M0 0 C3.3 0 6.6 0 10 0 C9.01 1.485 9.01 1.485 8 3 C8 2.34 8 1.68 8 1 C6.02 1.99 6.02 1.99 4 3 C4 4.98 4 6.96 4 9 C3.34 9 2.68 9 2 9 C1.855625 7.88625 1.71125 6.7725 1.5625 5.625 C1.21627965 2.17857953 1.21627965 2.17857953 0 0 Z " fill="#C5B998" transform="translate(124,46)"/>
<path d="M0 0 C0 2.64 0 5.28 0 8 C0.66 8.33 1.32 8.66 2 9 C2.33 8.67 2.66 8.34 3 8 C3.99 9.32 4.98 10.64 6 12 C3.69 12 1.38 12 -1 12 C-2.125 5.375 -2.125 5.375 -1 2 C-1.66 1.67 -2.32 1.34 -3 1 C-1 0 -1 0 0 0 Z " fill="#C5B898" transform="translate(114,15)"/>
<path d="M0 0 C1.231394 2.46278801 1.07159196 4.2795055 1 7 C1.66 6.01 2.32 5.02 3 4 C4.04449911 7.13349732 3.93423645 7.98968256 3 11 C1.68 10.67 0.36 10.34 -1 10 C-2.25 3.375 -2.25 3.375 0 0 Z " fill="#B1AB87" transform="translate(137,15)"/>
<path d="M0 0 C0.99 0.33 1.98 0.66 3 1 C3.6875 3.0625 3.6875 3.0625 4 5 C3.01 5.66 2.02 6.32 1 7 C0.67 6.67 0.34 6.34 0 6 C-0.99 6 -1.98 6 -3 6 C-3 5.01 -3 4.02 -3 3 C-2.01 2.67 -1.02 2.34 0 2 C0 1.34 0 0.68 0 0 Z " fill="#A5A780" transform="translate(55,14)"/>
<path d="M0 0 C0.99 0.66 1.98 1.32 3 2 C2.67 4.97 2.34 7.94 2 11 C0.68 11.33 -0.64 11.66 -2 12 C-2.66 11.01 -3.32 10.02 -4 9 C-3.01 8.67 -2.02 8.34 -1 8 C-0.26665571 4.02245872 -0.26665571 4.02245872 0 0 Z " fill="#ADA583" transform="translate(50,35)"/>
<path d="M0 0 C2.64 0 5.28 0 8 0 C9 2 9 2 8.0625 5.125 C7.711875 6.07375 7.36125 7.0225 7 8 C6.01 8 5.02 8 4 8 C4.66 5.69 5.32 3.38 6 1 C4.02 1 2.04 1 0 1 C0 0.67 0 0.34 0 0 Z " fill="#1B4A18" transform="translate(41,29)"/>
<path d="M0 0 C0.66 0.66 1.32 1.32 2 2 C1.34 3.98 0.68 5.96 0 8 C-0.99 8 -1.98 8 -3 8 C-3 6.68 -3 5.36 -3 4 C-3.99 4 -4.98 4 -6 4 C-6 3.34 -6 2.68 -6 2 C-4.02 2 -2.04 2 0 2 C0 1.34 0 0.68 0 0 Z " fill="#9F9C7C" transform="translate(36,29)"/>
<path d="M0 0 C4.95 0 9.9 0 15 0 C15 3.20395416 14.25664978 5.09399739 13 8 C12.34 7.67 11.68 7.34 11 7 C11.33 5.02 11.66 3.04 12 1 C8.04 1 4.08 1 0 1 C0 0.67 0 0.34 0 0 Z " fill="#C1B797" transform="translate(119,30)"/>
<path d="M0 0 C1.65 0 3.3 0 5 0 C5 1.65 5 3.3 5 5 C3.35 5.33 1.7 5.66 0 6 C0 4.02 0 2.04 0 0 Z " fill="#418A42" transform="translate(133,55)"/>
<path d="M0 0 C2.00720923 0.28674418 4.0085944 0.61866701 6 1 C6 2.65 6 4.3 6 6 C5.67 5.34 5.34 4.68 5 4 C4.67 5.65 4.34 7.3 4 9 C3.34 9 2.68 9 2 9 C1.814375 7.576875 1.814375 7.576875 1.625 6.125 C1.28312823 2.91332809 1.28312823 2.91332809 -1 1 C-0.67 0.67 -0.34 0.34 0 0 Z " fill="#C0B595" transform="translate(50,45)"/>
<path d="M0 0 C3.33537489 1.11179163 4.63707344 2.47411298 7 5 C6.67 5.99 6.34 6.98 6 8 C3.53199953 6.84826645 1.95216435 5.95216435 0 4 C0 2.68 0 1.36 0 0 Z " fill="#0C390B" transform="translate(43,42)"/>
<path d="M0 0 C0.99 0 1.98 0 3 0 C2.649375 1.093125 2.29875 2.18625 1.9375 3.3125 C0.66960546 6.90920373 0.66960546 6.90920373 2 10 C1.34 10.66 0.68 11.32 0 12 C-2 9 -2 9 -1.7578125 6.73828125 C-1.44457031 5.53751953 -1.44457031 5.53751953 -1.125 4.3125 C-0.92132813 3.50425781 -0.71765625 2.69601563 -0.5078125 1.86328125 C-0.34023437 1.24839844 -0.17265625 0.63351563 0 0 Z " fill="#C0B594" transform="translate(147,36)"/>
<path d="M0 0 C2.64 0.33 5.28 0.66 8 1 C7.67 2.32 7.34 3.64 7 5 C4.625 4.75 4.625 4.75 2 4 C0.6875 1.9375 0.6875 1.9375 0 0 Z " fill="#369545" transform="translate(81,25)"/>
<path d="M0 0 C1.98 0.66 3.96 1.32 6 2 C6.33 1.34 6.66 0.68 7 0 C7.625 2.375 7.625 2.375 8 5 C7.34 5.66 6.68 6.32 6 7 C6 5.68 6 4.36 6 3 C5.34 3 4.68 3 4 3 C4 3.66 4 4.32 4 5 C2.35 4.67 0.7 4.34 -1 4 C-0.67 2.68 -0.34 1.36 0 0 Z " fill="#94A779" transform="translate(15,18)"/>
<path d="M0 0 C0.5775 0.165 1.155 0.33 1.75 0.5 C4.26664369 1.14462031 4.26664369 1.14462031 8 1 C7.1875 2.9375 7.1875 2.9375 6 5 C5.01 5.33 4.02 5.66 3 6 C2.01 5.34 1.02 4.68 0 4 C0 2.68 0 1.36 0 0 Z " fill="#337B35" transform="translate(28,10)"/>
<path d="M0 0 C0.99 0.66 1.98 1.32 3 2 C3.375 4.5 3.375 4.5 3 7 C2.01 7.66 1.02 8.32 0 9 C-0.66 8.01 -1.32 7.02 -2 6 C-1.33333333 4 -0.66666667 2 0 0 Z " fill="#B0AA86" transform="translate(149,53)"/>
<path d="M0 0 C0.66 0.33 1.32 0.66 2 1 C0.75023244 4.65316671 0.32901247 5.78065836 -3 8 C-3.66 7.01 -4.32 6.02 -5 5 C-3.35 3.35 -1.7 1.7 0 0 Z " fill="#134011" transform="translate(39,43)"/>
<path d="M0 0 C1.32 0 2.64 0 4 0 C4 2.31 4 4.62 4 7 C3.01 7.495 3.01 7.495 2 8 C1.34 7.67 0.68 7.34 0 7 C-1.26229508 2.52459016 -1.26229508 2.52459016 0 0 Z " fill="#387D38" transform="translate(142,22)"/>
<path d="M0 0 C0.33 0.99 0.66 1.98 1 3 C-2.28696233 3.79953138 -3.71023192 4.09658936 -7 3 C-7 2.01 -7 1.02 -7 0 C-3.98968256 -0.93423645 -3.13349732 -1.04449911 0 0 Z " fill="#377D39" transform="translate(129,12)"/>
<path d="M0 0 C1.62463842 -0.05395478 3.24978541 -0.09277195 4.875 -0.125 C5.77992187 -0.14820313 6.68484375 -0.17140625 7.6171875 -0.1953125 C10 0 10 0 12 2 C9.6875 3.125 9.6875 3.125 7 4 C6.01 3.34 5.02 2.68 4 2 C3.01 2.495 3.01 2.495 2 3 C1.34 2.67 0.68 2.34 0 2 C0 1.34 0 0.68 0 0 Z " fill="#559C55" transform="translate(47,10)"/>
<path d="M0 0 C1.45742463 -0.08096803 2.91612807 -0.13917774 4.375 -0.1875 C5.18710938 -0.22230469 5.99921875 -0.25710937 6.8359375 -0.29296875 C7.55007812 -0.19628906 8.26421875 -0.09960938 9 0 C9.66 0.99 10.32 1.98 11 3 C7.37 3 3.74 3 0 3 C0 2.01 0 1.02 0 0 Z " fill="#B9AE8D" transform="translate(83,60)"/>
<path d="M0 0 C2.31 0.33 4.62 0.66 7 1 C5 3 5 3 2 4 C1.67 3.67 1.34 3.34 1 3 C0.67 3.99 0.34 4.98 0 6 C-0.66 6 -1.32 6 -2 6 C-2 4.68 -2 3.36 -2 2 C-1.34 2 -0.68 2 0 2 C0 1.34 0 0.68 0 0 Z " fill="#4E9B52" transform="translate(116,55)"/>
<path d="M0 0 C1.65 0 3.3 0 5 0 C5.33 0.99 5.66 1.98 6 3 C6.66 3.66 7.32 4.32 8 5 C5.36 5 2.72 5 0 5 C0 3.35 0 1.7 0 0 Z " fill="#A4A580" transform="translate(94,50)"/>
<path d="M0 0 C2.31 0 4.62 0 7 0 C6.67 2.64 6.34 5.28 6 8 C5.34 7.34 4.68 6.68 4 6 C4 4.68 4 3.36 4 2 C3.67 2.66 3.34 3.32 3 4 C2.34 4 1.68 4 1 4 C0.67 2.68 0.34 1.36 0 0 Z " fill="#C0B594" transform="translate(62,42)"/>
<path d="M0 0 C0.28571429 7.42857143 0.28571429 7.42857143 -2 11 C-2.33 11 -2.66 11 -3 11 C-4.35064935 3.51003542 -4.35064935 3.51003542 -2.625 1 C-1 0 -1 0 0 0 Z " fill="#C0B596" transform="translate(40,34)"/>
<path d="M0 0 C1.32 0 2.64 0 4 0 C2.92598892 2.91517292 2.22189824 4.77810176 0 7 C-0.99 6.34 -1.98 5.68 -3 5 C-1.75 2.5 -1.75 2.5 0 0 Z " fill="#154013" transform="translate(89,26)"/>
<path d="M0 0 C0.99 0 1.98 0 3 0 C3 1.65 3 3.3 3 5 C1.35 5.33 -0.3 5.66 -2 6 C-2 2 -2 2 0 0 Z " fill="#4A944D" transform="translate(14,24)"/>
<path d="M0 0 C0.66 0.33 1.32 0.66 2 1 C0.95125002 3.62187494 0.35068687 4.79371361 -2.125 6.25 C-2.74375 6.4975 -3.3625 6.745 -4 7 C-3.67 5.02 -3.34 3.04 -3 1 C-2.01 0.67 -1.02 0.34 0 0 Z " fill="#2B9F44" transform="translate(85,17)"/>
<path d="M0 0 C0.33 0 0.66 0 1 0 C1.33 1.65 1.66 3.3 2 5 C2.66 4.67 3.32 4.34 4 4 C4 6.31 4 8.62 4 11 C3.01 11 2.02 11 1 11 C0 10 0 10 -0.09765625 7.71484375 C-0.08605469 6.79832031 -0.07445312 5.88179687 -0.0625 4.9375 C-0.05347656 4.01839844 -0.04445313 3.09929688 -0.03515625 2.15234375 C-0.02355469 1.44207031 -0.01195312 0.73179688 0 0 Z " fill="#B1A684" transform="translate(6,12)"/>
<path d="M0 0 C0.66 0.33 1.32 0.66 2 1 C2 1.99 2 2.98 2 4 C2.66 4.33 3.32 4.66 4 5 C3.34 6.32 2.68 7.64 2 9 C1.01 8.67 0.02 8.34 -1 8 C-1 7.34 -1 6.68 -1 6 C-1.66 5.67 -2.32 5.34 -3 5 C-2.34 5 -1.68 5 -1 5 C-0.67 3.35 -0.34 1.7 0 0 Z " fill="#A8A983" transform="translate(19,11)"/>
<path d="M0 0 C1.02104551 0.97850195 2.0206121 1.97980427 3 3 C3 3.33 3 3.66 3 4 C-2.61 4 -8.22 4 -14 4 C-14 3.67 -14 3.34 -14 3 C-13.07316406 2.95101562 -12.14632812 2.90203125 -11.19140625 2.8515625 C-9.99386719 2.77679688 -8.79632813 2.70203125 -7.5625 2.625 C-6.36753906 2.55539063 -5.17257813 2.48578125 -3.94140625 2.4140625 C-2.97074219 2.27742188 -2.00007813 2.14078125 -1 2 C-0.67 1.34 -0.34 0.68 0 0 Z " fill="#CAC09F" transform="translate(94,60)"/>
<path d="M0 0 C0.99 0.33 1.98 0.66 3 1 C1.75 3.5 1.75 3.5 0 6 C-1.32 6 -2.64 6 -4 6 C-3.6875 4.125 -3.6875 4.125 -3 2 C-2.01 1.34 -1.02 0.68 0 0 Z " fill="#529A53" transform="translate(94,55)"/>
<path d="M0 0 C1.65 0.33 3.3 0.66 5 1 C3.515 3.475 3.515 3.475 2 6 C1.01 5.67 0.02 5.34 -1 5 C-0.67 3.35 -0.34 1.7 0 0 Z " fill="#3B813C" transform="translate(58,55)"/>
<path d="M0 0 C2 2 2 2 2.125 5.625 C2.08375 6.73875 2.0425 7.8525 2 9 C1.34 9 0.68 9 0 9 C0 7.68 0 6.36 0 5 C-0.99 5 -1.98 5 -3 5 C-3 4.01 -3 3.02 -3 2 C-2.34 2 -1.68 2 -1 2 C-0.67 1.34 -0.34 0.68 0 0 Z " fill="#C1B696" transform="translate(105,44)"/>
<path d="M0 0 C1.2065625 0.0309375 1.2065625 0.0309375 2.4375 0.0625 C2.7675 1.7125 3.0975 3.3625 3.4375 5.0625 C0.4375 5.0625 0.4375 5.0625 -2.5625 4.0625 C-2.8925 3.0725 -3.2225 2.0825 -3.5625 1.0625 C-2.5625 0.0625 -2.5625 0.0625 0 0 Z " fill="#3B803C" transform="translate(14.5625,39.9375)"/>
<path d="M0 0 C0.33 0 0.66 0 1 0 C1 3.3 1 6.6 1 10 C-1.31 10 -3.62 10 -6 10 C-4.625 8.5 -4.625 8.5 -3 7 C-2.34 7 -1.68 7 -1 7 C-0.67 4.69 -0.34 2.38 0 0 Z " fill="#C2B696" transform="translate(130,17)"/>
<path d="M0 0 C1.52519276 0.08937803 3.04681929 0.24537146 4.5625 0.4375 C5.80193359 0.59025391 5.80193359 0.59025391 7.06640625 0.74609375 C7.70449219 0.82988281 8.34257813 0.91367188 9 1 C9 1.66 9 2.32 9 3 C6.69 3.66 4.38 4.32 2 5 C1.01 3.68 0.02 2.36 -1 1 C-0.67 0.67 -0.34 0.34 0 0 Z " fill="#A0A67D" transform="translate(92,14)"/>
<path d="M0 0 C1.32 1.32 2.64 2.64 4 4 C3.34 4 2.68 4 2 4 C1.67 4.99 1.34 5.98 1 7 C0.34 6.67 -0.32 6.34 -1 6 C-1 5.34 -1 4.68 -1 4 C-1.66 3.67 -2.32 3.34 -3 3 C-2.01 2.01 -1.02 1.02 0 0 Z " fill="#366B33" transform="translate(78,8)"/>
<path d="M0 0 C-0.33 1.98 -0.66 3.96 -1 6 C-1.66 6 -2.32 6 -3 6 C-3.66 5.34 -4.32 4.68 -5 4 C-6.31747324 3.30251417 -7.64914193 2.63040043 -9 2 C-2.25 0 -2.25 0 0 0 Z " fill="#B4AB8E" transform="translate(153,5)"/>
<path d="M0 0 C-0.33 0.99 -0.66 1.98 -1 3 C-3.64 3 -6.28 3 -9 3 C-5.83583464 -0.30799106 -4.50236011 -1.35070803 0 0 Z " fill="#B4AB8B" transform="translate(128,61)"/>
<path d="M0 0 C-0.33 0.66 -0.66 1.32 -1 2 C-2.65 2 -4.3 2 -6 2 C-6.33 2.66 -6.66 3.32 -7 4 C-7.99 3.34 -8.98 2.68 -10 2 C-9.34 2 -8.68 2 -8 2 C-8 1.34 -8 0.68 -8 0 C-5.13822943 -1.43088528 -3.06624227 -0.59991697 0 0 Z " fill="#C2B797" transform="translate(33,61)"/>
<path d="M0 0 C0.6875 1.8125 0.6875 1.8125 1 4 C-0.84159673 6.48615558 -2.00470711 7.00156904 -5 8 C-4.74438677 5.6568787 -4.40729228 3.32156597 -4 1 C-2 0 -2 0 0 0 Z " fill="#96B680" transform="translate(134,51)"/>
<path d="M0 0 C2.475 0.99 2.475 0.99 5 2 C4.01 3.485 4.01 3.485 3 5 C1.35 4.67 -0.3 4.34 -2 4 C-2 3.34 -2 2.68 -2 2 C-1.34 2 -0.68 2 0 2 C0 1.34 0 0.68 0 0 Z " fill="#AEA485" transform="translate(44,48)"/>
<path d="M0 0 C2 3 2 3 2 6 C-2.29 5.34 -6.58 4.68 -11 4 C-11 3.67 -11 3.34 -11 3 C-10.28972656 2.95101562 -9.57945313 2.90203125 -8.84765625 2.8515625 C-7.46900391 2.73941406 -7.46900391 2.73941406 -6.0625 2.625 C-5.14597656 2.55539063 -4.22945312 2.48578125 -3.28515625 2.4140625 C-2.15400391 2.20910156 -2.15400391 2.20910156 -1 2 C-0.67 1.34 -0.34 0.68 0 0 Z " fill="#9B977B" transform="translate(135,42)"/>
<path d="M0 0 C3 1 3 1 4.1875 3.0625 C4.455625 3.701875 4.72375 4.34125 5 5 C4.01 5.66 3.02 6.32 2 7 C0.4375 5.75 0.4375 5.75 -1 4 C-0.6875 1.8125 -0.6875 1.8125 0 0 Z " fill="#A6AC83" transform="translate(137,40)"/>
<path d="M0 0 C0.66 0 1.32 0 2 0 C2 0.99 2 1.98 2 3 C2.66 3 3.32 3 4 3 C3.67 4.32 3.34 5.64 3 7 C2.34 7 1.68 7 1 7 C0.67 6.34 0.34 5.68 0 5 C-0.99 5 -1.98 5 -3 5 C-2.34 4.67 -1.68 4.34 -1 4 C-0.34786708 1.97536745 -0.34786708 1.97536745 0 0 Z " fill="#9DA47B" transform="translate(130,14)"/>
<path d="M0 0 C2.31 0.33 4.62 0.66 7 1 C5 3 5 3 3 4 C3.33 4.66 3.66 5.32 4 6 C2.68 6.33 1.36 6.66 0 7 C0 4.69 0 2.38 0 0 Z " fill="#5E8F56" transform="translate(10,9)"/>
<path d="M0 0 C0 0.66 0 1.32 0 2 C0.99 2.33 1.98 2.66 3 3 C2.34 3.66 1.68 4.32 1 5 C-0.9375 4.625 -0.9375 4.625 -3 4 C-3.99 4 -4.98 4 -6 4 C-5.67 3.01 -5.34 2.02 -5 1 C-3 0 -3 0 0 0 Z " fill="#9BB281" transform="translate(68,7)"/>
<path d="M0 0 C0.33 0.66 0.66 1.32 1 2 C2.65 2 4.3 2 6 2 C5.67 2.99 5.34 3.98 5 5 C3.02 5 1.04 5 -1 5 C-0.67 3.35 -0.34 1.7 0 0 Z " fill="#B1A88A" transform="translate(7,60)"/>
<path d="M0 0 C0.66 0 1.32 0 2 0 C2 0.99 2 1.98 2 3 C2.66 3.33 3.32 3.66 4 4 C4 4.66 4 5.32 4 6 C2.02 6.66 0.04 7.32 -2 8 C-2 7.01 -2 6.02 -2 5 C-1.34 5 -0.68 5 0 5 C0 3.35 0 1.7 0 0 Z " fill="#95AC7A" transform="translate(82,51)"/>
<path d="M0 0 C0.33 1.32 0.66 2.64 1 4 C-0.98 4.33 -2.96 4.66 -5 5 C-5.33 4.01 -5.66 3.02 -6 2 C-4.02 1.34 -2.04 0.68 0 0 Z " fill="#174115" transform="translate(122,46)"/>
<path d="M0 0 C0.66 0.33 1.32 0.66 2 1 C2 1.99 2 2.98 2 4 C2.99 4 3.98 4 5 4 C4.67 4.66 4.34 5.32 4 6 C2.35 6 0.7 6 -1 6 C-1.625 4.125 -1.625 4.125 -2 2 C-1.34 1.34 -0.68 0.68 0 0 Z " fill="#377C38" transform="translate(13,45)"/>
<path d="M0 0 C1.32 0.66 2.64 1.32 4 2 C2.35 3.32 0.7 4.64 -1 6 C-1.66 5.34 -2.32 4.68 -3 4 C-3 3.34 -3 2.68 -3 2 C-2.01 1.34 -1.02 0.68 0 0 Z " fill="#8EB078" transform="translate(31,52)"/>
<path d="M0 0 C2.31 0 4.62 0 7 0 C6.67 0.99 6.34 1.98 6 3 C4.02 3 2.04 3 0 3 C0 2.01 0 1.02 0 0 Z " fill="#909772" transform="translate(72,26)"/>
<path d="M0 0 C1.9375 0.3125 1.9375 0.3125 4 1 C4.33 1.99 4.66 2.98 5 4 C2.69 3.67 0.38 3.34 -2 3 C-1.34 2.01 -0.68 1.02 0 0 Z " fill="#15521D" transform="translate(84,22)"/>
<path d="M0 0 C0.66 0.99 1.32 1.98 2 3 C-1.08809695 4.76462683 -2.23312136 5 -6 5 C-5.67 3.68 -5.34 2.36 -5 1 C-5 1.66 -5 2.32 -5 3 C-3.35 2.67 -1.7 2.34 0 2 C0 1.34 0 0.68 0 0 Z " fill="#8DA674" transform="translate(14,42)"/>
<path d="M0 0 C0.598125 0.20625 1.19625 0.4125 1.8125 0.625 C1.8125 1.285 1.8125 1.945 1.8125 2.625 C-0.4975 3.285 -2.8075 3.945 -5.1875 4.625 C-5.1875 3.635 -5.1875 2.645 -5.1875 1.625 C-2.1875 -0.375 -2.1875 -0.375 0 0 Z " fill="#BDB491" transform="translate(15.1875,37.375)"/>
<path d="M0 0 C1.32 0 2.64 0 4 0 C4 1.32 4 2.64 4 4 C2.35 4 0.7 4 -1 4 C-0.67 2.68 -0.34 1.36 0 0 Z " fill="#BAAF92" transform="translate(65,34)"/>
<path d="M0 0 C0.99 0.99 1.98 1.98 3 3 C2.34 4.32 1.68 5.64 1 7 C-2 3.25 -2 3.25 -2 1 C-1.34 0.67 -0.68 0.34 0 0 Z " fill="#20471B" transform="translate(98,25)"/>
<path d="M0 0 C0.33 0.66 0.66 1.32 1 2 C1.99 2.33 2.98 2.66 4 3 C3.34 3.66 2.68 4.32 2 5 C1.35232207 7.57061311 1.35232207 7.57061311 1 10 C0.01 10 -0.98 10 -2 10 C-1.54177532 6.53058454 -1.10868317 3.32604951 0 0 Z " fill="#ADA281" transform="translate(51,23)"/>
<path d="M0 0 C-0.50603992 2.16874252 -0.99983813 3.99967627 -2 6 C-3.65 6 -5.3 6 -7 6 C-6.01 5.34 -5.02 4.68 -4 4 C-4 3.01 -4 2.02 -4 1 C-2 0 -2 0 0 0 Z " fill="#AFA685" transform="translate(31,21)"/>
<path d="M0 0 C0.66 0 1.32 0 2 0 C2.33 0.66 2.66 1.32 3 2 C3.66 1.67 4.32 1.34 5 1 C4.67 2.32 4.34 3.64 4 5 C3.01 4.67 2.02 4.34 1 4 C1.33 4.99 1.66 5.98 2 7 C1.34 7 0.68 7 0 7 C0 4.69 0 2.38 0 0 Z " fill="#B0A483" transform="translate(114,16)"/>
<path d="M0 0 C2.64 0 5.28 0 8 0 C5.94766315 2.2477975 4.99332739 3.0022242 2 4 C1.34 3.67 0.68 3.34 0 3 C0 2.01 0 1.02 0 0 Z " fill="#4F9F53" transform="translate(89,10)"/>
<path d="M0 0 C-2.46735884 2.46735884 -4.72171521 2.9072384 -8 4 C-8.66 4.66 -9.32 5.32 -10 6 C-9.6875 4.125 -9.6875 4.125 -9 2 C-5.5647952 -0.29013653 -4.014669 -0.17842973 0 0 Z " fill="#60A05D" transform="translate(52,55)"/>
<path d="M0 0 C0 2.97 0 5.94 0 9 C-0.66 8.67 -1.32 8.34 -2 8 C-2 5.69 -2 3.38 -2 1 C-3.32 0.67 -4.64 0.34 -6 0 C-2.25 -1.125 -2.25 -1.125 0 0 Z " fill="#49693C" transform="translate(30,28)"/>
<path d="M0 0 C0.66 0 1.32 0 2 0 C2 0.99 2 1.98 2 3 C2.66 3.66 3.32 4.32 4 5 C3.34 5 2.68 5 2 5 C2 5.66 2 6.32 2 7 C2.66 7.33 3.32 7.66 4 8 C2.68 7.67 1.36 7.34 0 7 C0 4.69 0 2.38 0 0 Z " fill="#58A059" transform="translate(140,22)"/>
<path d="M0 0 C1.32 0 2.64 0 4 0 C4 0.66 4 1.32 4 2 C4.66 2 5.32 2 6 2 C5.67 3.32 5.34 4.64 5 6 C4.34 6 3.68 6 3 6 C2.01 4.02 1.02 2.04 0 0 Z " fill="#B0A786" transform="translate(107,15)"/>
<path d="M0 0 C1.625 1.5625 1.625 1.5625 3 4 C2.1875 7.75 2.1875 7.75 1 11 C0.67 11 0.34 11 0 11 C-0.19406478 9.35492782 -0.38007935 7.70890406 -0.5625 6.0625 C-0.66691406 5.14597656 -0.77132813 4.22945312 -0.87890625 3.28515625 C-0.91886719 2.53105469 -0.95882813 1.77695313 -1 1 C-0.67 0.67 -0.34 0.34 0 0 Z " fill="#BBB08F" transform="translate(7,10)"/>
<path d="M0 0 C3 0 3 0 6 1 C6.33 1.99 6.66 2.98 7 4 C4.69 4 2.38 4 0 4 C0 2.68 0 1.36 0 0 Z " fill="#337735" transform="translate(20,12)"/>
<path d="M0 0 C0.433125 0.9590625 0.433125 0.9590625 0.875 1.9375 C1.82823451 4.15206079 1.82823451 4.15206079 4 5 C1.69 4.67 -0.62 4.34 -3 4 C-3 3.34 -3 2.68 -3 2 C-2.01 2 -1.02 2 0 2 C0 1.34 0 0.68 0 0 Z " fill="#C1B694" transform="translate(147,59)"/>
<path d="M0 0 C2.31 0 4.62 0 7 0 C5.35 1.65 3.7 3.3 2 5 C1.34 4.67 0.68 4.34 0 4 C0 2.68 0 1.36 0 0 Z " fill="#2F7A34" transform="translate(39,55)"/>
<path d="M0 0 C1.32 0.66 2.64 1.32 4 2 C3.38125 2.28875 2.7625 2.5775 2.125 2.875 C-0.13325765 3.93720042 -0.13325765 3.93720042 -2 6 C-2.33 5.34 -2.66 4.68 -3 4 C-2.01 2.68 -1.02 1.36 0 0 Z " fill="#629357" transform="translate(78,53)"/>
<path d="M0 0 C0.33 0.99 0.66 1.98 1 3 C1.66 3.33 2.32 3.66 3 4 C1.35 4.33 -0.3 4.66 -2 5 C-2.33 4.34 -2.66 3.68 -3 3 C-2.01 2.01 -1.02 1.02 0 0 Z " fill="#BEB693" transform="translate(37,50)"/>
<path d="M0 0 C-0.99 0 -1.98 0 -3 0 C-3 2.31 -3 4.62 -3 7 C-3.33 5.68 -3.66 4.36 -4 3 C-4.66 3 -5.32 3 -6 3 C-6 2.01 -6 1.02 -6 0 C-3.50907189 -1.24546405 -2.58919267 -0.7767578 0 0 Z " fill="#BFB696" transform="translate(30,47)"/>
<path d="M0 0 C0.66 1.32 1.32 2.64 2 4 C1.01 4.495 1.01 4.495 0 5 C0 5.66 0 6.32 0 7 C0.66 7.33 1.32 7.66 2 8 C1.01 8 0.02 8 -1 8 C-1.625 5.6875 -1.625 5.6875 -2 3 C-1.34 2.01 -0.68 1.02 0 0 Z " fill="#BEB595" transform="translate(23,35)"/>
<path d="M0 0 C2.91517292 1.07401108 4.77810176 1.77810176 7 4 C4.69 4 2.38 4 0 4 C0 2.68 0 1.36 0 0 Z " fill="#C5B89A" transform="translate(72,34)"/>
<path d="M0 0 C0.66 0 1.32 0 2 0 C2 2.31 2 4.62 2 7 C1.01 6.34 0.02 5.68 -1 5 C-0.67 3.35 -0.34 1.7 0 0 Z " fill="#C3B898" transform="translate(111,31)"/>
<path d="M0 0 C0.66 0 1.32 0 2 0 C2 0.66 2 1.32 2 2 C3.32 2 4.64 2 6 2 C5.34 3.32 4.68 4.64 4 6 C3.01 5.67 2.02 5.34 1 5 C0.67 3.35 0.34 1.7 0 0 Z " fill="#B4AB8C" transform="translate(21,29)"/>
<path d="M0 0 C2.97 0.495 2.97 0.495 6 1 C5.67 1.66 5.34 2.32 5 3 C4.34 3 3.68 3 3 3 C1.37485532 4.45833358 1.37485532 4.45833358 0 6 C-0.33 5.34 -0.66 4.68 -1 4 C-0.34 4 0.32 4 1 4 C0.67 2.68 0.34 1.36 0 0 Z " fill="#BCB191" transform="translate(115,20)"/>
<path d="M0 0 C0.66 0.33 1.32 0.66 2 1 C2.125 6.75 2.125 6.75 1 9 C0.34 8.67 -0.32 8.34 -1 8 C-0.835 7.236875 -0.67 6.47375 -0.5 5.6875 C0.09145396 2.96403764 0.09145396 2.96403764 0 0 Z " fill="#C2B796" transform="translate(31,16)"/>
<path d="M0 0 C0.99 0.33 1.98 0.66 3 1 C2.34 2.98 1.68 4.96 1 7 C0.34 6.67 -0.32 6.34 -1 6 C-1.042721 4.33388095 -1.04063832 2.66617115 -1 1 C-0.67 0.67 -0.34 0.34 0 0 Z " fill="#0D581C" transform="translate(80,16)"/>
<path d="M0 0 C2.475 0.495 2.475 0.495 5 1 C4.67 2.65 4.34 4.3 4 6 C1.7522025 3.94766315 0.9977758 2.99332739 0 0 Z " fill="#337A34" transform="translate(114,10)"/>
<path d="M0 0 C2.875 -0.125 2.875 -0.125 6 0 C6.66 0.66 7.32 1.32 8 2 C6.35 2.66 4.7 3.32 3 4 C1.97895449 3.02149805 0.9793879 2.02019573 0 1 C0 0.67 0 0.34 0 0 Z " fill="#549C55" transform="translate(126,10)"/>
<path d="M0 0 C1.32 0 2.64 0 4 0 C4 0.66 4 1.32 4 2 C5.32 1.67 6.64 1.34 8 1 C8 1.66 8 2.32 8 3 C5.6875 3.6875 5.6875 3.6875 3 4 C1.1875 2.625 1.1875 2.625 0 1 C0 0.67 0 0.34 0 0 Z " fill="#ADAE87" transform="translate(32,7)"/>
</svg>
