<svg viewBox="0 0 28 28" fill="none" xmlns="http://www.w3.org/2000/svg">
  <!-- Face outline -->
  <circle cx="14" cy="14" r="10.5" stroke="currentColor" stroke-width="1.6"/>
  <!-- Left eye -->
  <path d="M10.5 12C11 12 11.5 12.5 11.5 13C11.5 13.5 11 14 10.5 14C10 14 9.5 13.5 9.5 13C9.5 12.5 10 12 10.5 12Z" fill="currentColor"/>
  <!-- Right eye -->
  <path d="M17.5 12C18 12 18.5 12.5 18.5 13C18.5 13.5 18 14 17.5 14C17 14 16.5 13.5 16.5 13C16.5 12.5 17 12 17.5 12Z" fill="currentColor"/>
  <!-- Big smile -->
  <path d="M9 17.5C9.8 19 11.2 20 13 20.5C14.8 20 16.2 19 17 17.5" stroke="currentColor" stroke-width="1.6" stroke-linecap="round"/>
  <!-- Rosy cheeks left -->
  <circle cx="8.5" cy="16" r="1" fill="currentColor" opacity="0.4"/>
  <!-- Rosy cheeks right -->
  <circle cx="19.5" cy="16" r="1" fill="currentColor" opacity="0.4"/>
</svg>
